<mxfile host="app.diagrams.net" modified="2021-05-29T22:16:50.607Z" agent="5.0 (Windows NT 10.0; Win64; x64) AppleWebKit/537.36 (KHTML, like Gecko) Chrome/90.0.4430.212 Safari/537.36" etag="wdOPzy2D40mxs82wPGdo" version="14.7.3" type="github">
  <diagram id="prtHgNgQTEPvFCAcTncT" name="Page-1">
    <mxGraphModel dx="868" dy="450" grid="1" gridSize="10" guides="1" tooltips="1" connect="1" arrows="1" fold="1" page="1" pageScale="1" pageWidth="827" pageHeight="1169" math="0" shadow="0">
      <root>
        <mxCell id="0" />
        <mxCell id="1" parent="0" />
        <UserObject label="1" lucidchartObjectId="jR9Gvp2asJyl" id="tqv5WJi3nZ0nivxOHpwp-1">
          <mxCell style="html=1;overflow=block;blockSpacing=1;whiteSpace=wrap;ellipse;whiteSpace=wrap;fontSize=16.7;fontColor=#333333;spacing=3.8;strokeColor=#5e5e5e;strokeOpacity=100;rounded=1;absoluteArcSize=1;arcSize=9;strokeWidth=2.3;" vertex="1" parent="1">
            <mxGeometry x="120" y="120" width="60" height="60" as="geometry" />
          </mxCell>
        </UserObject>
        <UserObject label="" lucidchartObjectId="BR9G_hioLRQp" id="tqv5WJi3nZ0nivxOHpwp-2">
          <mxCell style="html=1;jettySize=18;whiteSpace=wrap;fontSize=13;strokeColor=#5E5E5E;strokeWidth=1.5;rounded=1;arcSize=12;edgeStyle=orthogonalEdgeStyle;startArrow=none;;endArrow=block;endFill=1;;entryX=-0.008;entryY=0.399;entryPerimeter=0;" edge="1" parent="1" target="tqv5WJi3nZ0nivxOHpwp-1">
            <mxGeometry width="100" height="100" relative="1" as="geometry">
              <Array as="points" />
              <mxPoint x="30" y="144" as="sourcePoint" />
            </mxGeometry>
          </mxCell>
        </UserObject>
        <UserObject label="2" lucidchartObjectId="kS9GomubEngX" id="tqv5WJi3nZ0nivxOHpwp-3">
          <mxCell style="html=1;overflow=block;blockSpacing=1;whiteSpace=wrap;ellipse;whiteSpace=wrap;fontSize=16.7;fontColor=#333333;spacing=3.8;strokeColor=#5e5e5e;strokeOpacity=100;rounded=1;absoluteArcSize=1;arcSize=9;strokeWidth=2.3;" vertex="1" parent="1">
            <mxGeometry x="225" y="90" width="90" height="90" as="geometry" />
          </mxCell>
        </UserObject>
        <UserObject label="" lucidchartObjectId="8T9G3swr1opK" id="tqv5WJi3nZ0nivxOHpwp-4">
          <mxCell style="html=1;jettySize=18;whiteSpace=wrap;fontSize=13;strokeColor=#5E5E5E;strokeWidth=1.5;rounded=1;arcSize=12;edgeStyle=orthogonalEdgeStyle;startArrow=none;;endArrow=block;endFill=1;;exitX=1.019;exitY=0.5;exitPerimeter=0;entryX=-0.013;entryY=0.5;entryPerimeter=0;" edge="1" parent="1" source="tqv5WJi3nZ0nivxOHpwp-1" target="tqv5WJi3nZ0nivxOHpwp-3">
            <mxGeometry width="100" height="100" relative="1" as="geometry">
              <Array as="points" />
            </mxGeometry>
          </mxCell>
        </UserObject>
        <mxCell id="tqv5WJi3nZ0nivxOHpwp-5" value="ε" style="text;html=1;resizable=0;labelBackgroundColor=#ffffff;align=center;verticalAlign=middle;fontStyle=1;fontColor=#333333;;fontSize=13.3;" vertex="1" parent="tqv5WJi3nZ0nivxOHpwp-4">
          <mxGeometry x="-0.20779725742496058" relative="1" as="geometry" />
        </mxCell>
        <UserObject label="3" lucidchartObjectId="vU9G6dReC1zi" id="tqv5WJi3nZ0nivxOHpwp-6">
          <mxCell style="html=1;overflow=block;blockSpacing=1;whiteSpace=wrap;ellipse;whiteSpace=wrap;fontSize=16.7;fontColor=#333333;spacing=3.8;strokeColor=#5e5e5e;strokeOpacity=100;rounded=1;absoluteArcSize=1;arcSize=9;strokeWidth=2.3;" vertex="1" parent="1">
            <mxGeometry x="345" y="30" width="60" height="60" as="geometry" />
          </mxCell>
        </UserObject>
        <UserObject label="" lucidchartObjectId="BU9G23G_L7to" id="tqv5WJi3nZ0nivxOHpwp-7">
          <mxCell style="html=1;jettySize=18;whiteSpace=wrap;fontSize=13;strokeColor=#5E5E5E;strokeWidth=1.5;rounded=1;arcSize=12;edgeStyle=orthogonalEdgeStyle;startArrow=none;;endArrow=block;endFill=1;;exitX=0.635;exitY=0.006;exitPerimeter=0;entryX=-0.019;entryY=0.5;entryPerimeter=0;" edge="1" parent="1" source="tqv5WJi3nZ0nivxOHpwp-3" target="tqv5WJi3nZ0nivxOHpwp-6">
            <mxGeometry width="100" height="100" relative="1" as="geometry">
              <Array as="points" />
            </mxGeometry>
          </mxCell>
        </UserObject>
        <mxCell id="tqv5WJi3nZ0nivxOHpwp-8" value="@" style="text;html=1;resizable=0;labelBackgroundColor=#ffffff;align=center;verticalAlign=middle;fontStyle=1;fontColor=#333333;;fontSize=13.3;" vertex="1" parent="tqv5WJi3nZ0nivxOHpwp-7">
          <mxGeometry x="0.14248192056659104" relative="1" as="geometry" />
        </mxCell>
        <UserObject label="A" lucidchartObjectId="VU9GsIKeUsdR" id="tqv5WJi3nZ0nivxOHpwp-9">
          <mxCell style="html=1;overflow=block;blockSpacing=1;whiteSpace=wrap;ellipse;whiteSpace=wrap;fontSize=16.7;fontColor=#333333;spacing=3.8;strokeColor=#5e5e5e;strokeOpacity=100;rounded=1;absoluteArcSize=1;arcSize=9;strokeWidth=2.3;" vertex="1" parent="1">
            <mxGeometry x="450" y="30" width="60" height="60" as="geometry" />
          </mxCell>
        </UserObject>
        <UserObject label="" lucidchartObjectId="YU9GVYbIx3_d" id="tqv5WJi3nZ0nivxOHpwp-10">
          <mxCell style="html=1;jettySize=18;whiteSpace=wrap;fontSize=13;strokeColor=#5E5E5E;strokeWidth=1.5;rounded=1;arcSize=12;edgeStyle=orthogonalEdgeStyle;startArrow=none;;endArrow=block;endFill=1;;exitX=1.019;exitY=0.5;exitPerimeter=0;entryX=-0.019;entryY=0.5;entryPerimeter=0;" edge="1" parent="1" source="tqv5WJi3nZ0nivxOHpwp-6" target="tqv5WJi3nZ0nivxOHpwp-9">
            <mxGeometry width="100" height="100" relative="1" as="geometry">
              <Array as="points" />
            </mxGeometry>
          </mxCell>
        </UserObject>
        <mxCell id="tqv5WJi3nZ0nivxOHpwp-11" value="ε" style="text;html=1;resizable=0;labelBackgroundColor=#ffffff;align=center;verticalAlign=middle;fontStyle=1;fontColor=#333333;;fontSize=13.3;" vertex="1" parent="tqv5WJi3nZ0nivxOHpwp-10">
          <mxGeometry x="-0.163748065473866" relative="1" as="geometry" />
        </mxCell>
        <UserObject label="4" lucidchartObjectId="~U9G0Q~qyC~E" id="tqv5WJi3nZ0nivxOHpwp-12">
          <mxCell style="html=1;overflow=block;blockSpacing=1;whiteSpace=wrap;ellipse;whiteSpace=wrap;fontSize=16.7;fontColor=#333333;spacing=3.8;strokeColor=#5e5e5e;strokeOpacity=100;rounded=1;absoluteArcSize=1;arcSize=9;strokeWidth=2.3;" vertex="1" parent="1">
            <mxGeometry x="458" y="38" width="45" height="45" as="geometry" />
          </mxCell>
        </UserObject>
        <UserObject label="5" lucidchartObjectId="QV9GZut._6r4" id="tqv5WJi3nZ0nivxOHpwp-13">
          <mxCell style="html=1;overflow=block;blockSpacing=1;whiteSpace=wrap;ellipse;whiteSpace=wrap;fontSize=16.7;fontColor=#333333;spacing=3.8;strokeColor=#5e5e5e;strokeOpacity=100;rounded=1;absoluteArcSize=1;arcSize=9;strokeWidth=2.3;" vertex="1" parent="1">
            <mxGeometry x="360" y="105" width="60" height="60" as="geometry" />
          </mxCell>
        </UserObject>
        <UserObject label="" lucidchartObjectId="hW9GUbYRzF4N" id="tqv5WJi3nZ0nivxOHpwp-14">
          <mxCell style="html=1;jettySize=18;whiteSpace=wrap;fontSize=13;strokeColor=#5E5E5E;strokeWidth=1.5;rounded=1;arcSize=12;edgeStyle=orthogonalEdgeStyle;startArrow=none;;endArrow=block;endFill=1;;exitX=1.013;exitY=0.5;exitPerimeter=0;entryX=-0.019;entryY=0.5;entryPerimeter=0;" edge="1" parent="1" source="tqv5WJi3nZ0nivxOHpwp-3" target="tqv5WJi3nZ0nivxOHpwp-13">
            <mxGeometry width="100" height="100" relative="1" as="geometry">
              <Array as="points" />
            </mxGeometry>
          </mxCell>
        </UserObject>
        <mxCell id="tqv5WJi3nZ0nivxOHpwp-15" value="$" style="text;html=1;resizable=0;labelBackgroundColor=#ffffff;align=center;verticalAlign=middle;fontStyle=1;fontColor=#333333;;fontSize=13.3;" vertex="1" parent="tqv5WJi3nZ0nivxOHpwp-14">
          <mxGeometry x="-0.12371372668104286" relative="1" as="geometry" />
        </mxCell>
        <UserObject label="A" lucidchartObjectId="zW9GrDXgTYUY" id="tqv5WJi3nZ0nivxOHpwp-16">
          <mxCell style="html=1;overflow=block;blockSpacing=1;whiteSpace=wrap;ellipse;whiteSpace=wrap;fontSize=16.7;fontColor=#333333;spacing=3.8;strokeColor=#5e5e5e;strokeOpacity=100;rounded=1;absoluteArcSize=1;arcSize=9;strokeWidth=2.3;" vertex="1" parent="1">
            <mxGeometry x="480" y="105" width="60" height="60" as="geometry" />
          </mxCell>
        </UserObject>
        <UserObject label="6" lucidchartObjectId="DW9GT9lbwImt" id="tqv5WJi3nZ0nivxOHpwp-17">
          <mxCell style="html=1;overflow=block;blockSpacing=1;whiteSpace=wrap;ellipse;whiteSpace=wrap;fontSize=16.7;fontColor=#333333;spacing=3.8;strokeColor=#5e5e5e;strokeOpacity=100;rounded=1;absoluteArcSize=1;arcSize=9;strokeWidth=2.3;" vertex="1" parent="1">
            <mxGeometry x="488" y="113" width="45" height="45" as="geometry" />
          </mxCell>
        </UserObject>
        <UserObject label="" lucidchartObjectId="LW9GUyIRL633" id="tqv5WJi3nZ0nivxOHpwp-18">
          <mxCell style="html=1;jettySize=18;whiteSpace=wrap;fontSize=13;strokeColor=#5E5E5E;strokeWidth=1.5;rounded=1;arcSize=12;edgeStyle=orthogonalEdgeStyle;startArrow=none;;endArrow=block;endFill=1;;exitX=1.019;exitY=0.5;exitPerimeter=0;entryX=-0.019;entryY=0.5;entryPerimeter=0;" edge="1" parent="1" source="tqv5WJi3nZ0nivxOHpwp-13" target="tqv5WJi3nZ0nivxOHpwp-16">
            <mxGeometry width="100" height="100" relative="1" as="geometry">
              <Array as="points" />
            </mxGeometry>
          </mxCell>
        </UserObject>
        <mxCell id="tqv5WJi3nZ0nivxOHpwp-19" value="ε" style="text;html=1;resizable=0;labelBackgroundColor=#ffffff;align=center;verticalAlign=middle;fontStyle=1;fontColor=#333333;;fontSize=13.3;" vertex="1" parent="tqv5WJi3nZ0nivxOHpwp-18">
          <mxGeometry x="-0.1731643811874658" relative="1" as="geometry" />
        </mxCell>
        <UserObject label="7" lucidchartObjectId="vX9GxO0n2NO_" id="tqv5WJi3nZ0nivxOHpwp-20">
          <mxCell style="html=1;overflow=block;blockSpacing=1;whiteSpace=wrap;ellipse;whiteSpace=wrap;fontSize=16.7;fontColor=#333333;spacing=3.8;strokeColor=#5e5e5e;strokeOpacity=100;rounded=1;absoluteArcSize=1;arcSize=9;strokeWidth=2.3;" vertex="1" parent="1">
            <mxGeometry x="360" y="195" width="60" height="60" as="geometry" />
          </mxCell>
        </UserObject>
        <UserObject label="" lucidchartObjectId="JX9GeMe~E.Ko" id="tqv5WJi3nZ0nivxOHpwp-21">
          <mxCell style="html=1;jettySize=18;whiteSpace=wrap;fontSize=13;strokeColor=#5E5E5E;strokeWidth=1.5;rounded=1;arcSize=12;edgeStyle=orthogonalEdgeStyle;startArrow=none;;endArrow=block;endFill=1;;exitX=0.949;exitY=0.747;exitPerimeter=0;entryX=0.202;entryY=0.077;entryPerimeter=0;" edge="1" parent="1" source="tqv5WJi3nZ0nivxOHpwp-3" target="tqv5WJi3nZ0nivxOHpwp-20">
            <mxGeometry width="100" height="100" relative="1" as="geometry">
              <Array as="points" />
            </mxGeometry>
          </mxCell>
        </UserObject>
        <mxCell id="tqv5WJi3nZ0nivxOHpwp-22" value="+" style="text;html=1;resizable=0;labelBackgroundColor=#ffffff;align=center;verticalAlign=middle;fontStyle=1;fontColor=#333333;;fontSize=13.3;" vertex="1" parent="tqv5WJi3nZ0nivxOHpwp-21">
          <mxGeometry x="-0.14597971765087614" relative="1" as="geometry" />
        </mxCell>
        <UserObject label="A" lucidchartObjectId="wY9GvvaL5AJD" id="tqv5WJi3nZ0nivxOHpwp-23">
          <mxCell style="html=1;overflow=block;blockSpacing=1;whiteSpace=wrap;ellipse;whiteSpace=wrap;fontSize=16.7;fontColor=#333333;spacing=3.8;strokeColor=#5e5e5e;strokeOpacity=100;rounded=1;absoluteArcSize=1;arcSize=9;strokeWidth=2.3;" vertex="1" parent="1">
            <mxGeometry x="480" y="195" width="60" height="60" as="geometry" />
          </mxCell>
        </UserObject>
        <UserObject label="8" lucidchartObjectId="zY9GOzsOUva-" id="tqv5WJi3nZ0nivxOHpwp-24">
          <mxCell style="html=1;overflow=block;blockSpacing=1;whiteSpace=wrap;ellipse;whiteSpace=wrap;fontSize=16.7;fontColor=#333333;spacing=3.8;strokeColor=#5e5e5e;strokeOpacity=100;rounded=1;absoluteArcSize=1;arcSize=9;strokeWidth=2.3;" vertex="1" parent="1">
            <mxGeometry x="488" y="203" width="45" height="45" as="geometry" />
          </mxCell>
        </UserObject>
        <UserObject label="" lucidchartObjectId="FY9GtuVDbtWG" id="tqv5WJi3nZ0nivxOHpwp-25">
          <mxCell style="html=1;jettySize=18;whiteSpace=wrap;fontSize=13;strokeColor=#5E5E5E;strokeWidth=1.5;rounded=1;arcSize=12;edgeStyle=orthogonalEdgeStyle;startArrow=none;;endArrow=block;endFill=1;;exitX=1.019;exitY=0.5;exitPerimeter=0;entryX=-0.025;entryY=0.5;entryPerimeter=0;" edge="1" parent="1" source="tqv5WJi3nZ0nivxOHpwp-20" target="tqv5WJi3nZ0nivxOHpwp-24">
            <mxGeometry width="100" height="100" relative="1" as="geometry">
              <Array as="points" />
            </mxGeometry>
          </mxCell>
        </UserObject>
        <mxCell id="tqv5WJi3nZ0nivxOHpwp-26" value="ε" style="text;html=1;resizable=0;labelBackgroundColor=#ffffff;align=center;verticalAlign=middle;fontStyle=1;fontColor=#333333;;fontSize=13.3;" vertex="1" parent="tqv5WJi3nZ0nivxOHpwp-25">
          <mxGeometry x="-0.1149450008591365" relative="1" as="geometry" />
        </mxCell>
        <UserObject label="A" lucidchartObjectId="yZ9GWit2NcKj" id="tqv5WJi3nZ0nivxOHpwp-27">
          <mxCell style="html=1;overflow=block;blockSpacing=1;whiteSpace=wrap;ellipse;whiteSpace=wrap;fontSize=16.7;fontColor=#333333;spacing=3.8;strokeColor=#5e5e5e;strokeOpacity=100;rounded=1;absoluteArcSize=1;arcSize=9;strokeWidth=2.3;" vertex="1" parent="1">
            <mxGeometry x="360" y="315" width="60" height="60" as="geometry" />
          </mxCell>
        </UserObject>
        <UserObject label="" lucidchartObjectId="EZ9GCwgbRo4k" id="tqv5WJi3nZ0nivxOHpwp-28">
          <mxCell style="html=1;jettySize=18;whiteSpace=wrap;fontSize=13;strokeColor=#5E5E5E;strokeWidth=1.5;rounded=1;arcSize=12;edgeStyle=orthogonalEdgeStyle;startArrow=none;;endArrow=block;endFill=1;;exitX=0.634;exitY=0.995;exitPerimeter=0;entryX=0;entryY=0.717;entryDx=0;entryDy=0;entryPerimeter=0;" edge="1" parent="1" source="tqv5WJi3nZ0nivxOHpwp-3" target="tqv5WJi3nZ0nivxOHpwp-27">
            <mxGeometry width="100" height="100" relative="1" as="geometry">
              <Array as="points">
                <mxPoint x="270" y="180" />
                <mxPoint x="270" y="358" />
              </Array>
              <mxPoint x="310" y="360" as="targetPoint" />
            </mxGeometry>
          </mxCell>
        </UserObject>
        <mxCell id="tqv5WJi3nZ0nivxOHpwp-29" value="-" style="text;html=1;resizable=0;labelBackgroundColor=#ffffff;align=center;verticalAlign=middle;fontStyle=1;fontColor=#333333;;fontSize=13.3;" vertex="1" parent="tqv5WJi3nZ0nivxOHpwp-28">
          <mxGeometry x="-0.30894721795996594" relative="1" as="geometry" />
        </mxCell>
        <UserObject label="9" lucidchartObjectId="PZ9GGhK6.aJW" id="tqv5WJi3nZ0nivxOHpwp-30">
          <mxCell style="html=1;overflow=block;blockSpacing=1;whiteSpace=wrap;ellipse;whiteSpace=wrap;fontSize=16.7;fontColor=#333333;spacing=3.8;strokeColor=#5e5e5e;strokeOpacity=100;rounded=1;absoluteArcSize=1;arcSize=9;strokeWidth=2.3;" vertex="1" parent="1">
            <mxGeometry x="368" y="323" width="45" height="45" as="geometry" />
          </mxCell>
        </UserObject>
        <UserObject label="10" lucidchartObjectId="G19GpCjo77rV" id="tqv5WJi3nZ0nivxOHpwp-31">
          <mxCell style="html=1;overflow=block;blockSpacing=1;whiteSpace=wrap;ellipse;whiteSpace=wrap;fontSize=16.7;fontColor=#333333;spacing=3.8;strokeColor=#5e5e5e;strokeOpacity=100;rounded=1;absoluteArcSize=1;arcSize=9;strokeWidth=2.3;" vertex="1" parent="1">
            <mxGeometry x="525" y="285" width="60" height="60" as="geometry" />
          </mxCell>
        </UserObject>
        <UserObject label="" lucidchartObjectId="W19Gnk3ItRrQ" id="tqv5WJi3nZ0nivxOHpwp-32">
          <mxCell style="html=1;jettySize=18;whiteSpace=wrap;fontSize=13;strokeColor=#5E5E5E;strokeWidth=1.5;rounded=1;arcSize=12;edgeStyle=orthogonalEdgeStyle;startArrow=none;;endArrow=block;endFill=1;;exitX=1.025;exitY=0.5;exitPerimeter=0;entryX=-0.019;entryY=0.5;entryPerimeter=0;" edge="1" parent="1" source="tqv5WJi3nZ0nivxOHpwp-30" target="tqv5WJi3nZ0nivxOHpwp-31">
            <mxGeometry width="100" height="100" relative="1" as="geometry">
              <Array as="points" />
            </mxGeometry>
          </mxCell>
        </UserObject>
        <mxCell id="tqv5WJi3nZ0nivxOHpwp-33" value="ε" style="text;html=1;resizable=0;labelBackgroundColor=#ffffff;align=center;verticalAlign=middle;fontStyle=1;fontColor=#333333;;fontSize=13.3;" vertex="1" parent="tqv5WJi3nZ0nivxOHpwp-32">
          <mxGeometry x="-0.3244239236570349" relative="1" as="geometry" />
        </mxCell>
        <UserObject label="11" lucidchartObjectId="z29GxYcir0TZ" id="tqv5WJi3nZ0nivxOHpwp-34">
          <mxCell style="html=1;overflow=block;blockSpacing=1;whiteSpace=wrap;ellipse;whiteSpace=wrap;fontSize=16.7;fontColor=#333333;spacing=3.8;strokeColor=#5e5e5e;strokeOpacity=100;rounded=1;absoluteArcSize=1;arcSize=9;strokeWidth=2.3;" vertex="1" parent="1">
            <mxGeometry x="623" y="225" width="60" height="60" as="geometry" />
          </mxCell>
        </UserObject>
        <UserObject label="12" lucidchartObjectId="i39GOCSO4U0d" id="tqv5WJi3nZ0nivxOHpwp-36">
          <mxCell style="html=1;overflow=block;blockSpacing=1;whiteSpace=wrap;ellipse;whiteSpace=wrap;fontSize=16.7;fontColor=#333333;spacing=3.8;strokeColor=#5e5e5e;strokeOpacity=100;rounded=1;absoluteArcSize=1;arcSize=9;strokeWidth=2.3;" vertex="1" parent="1">
            <mxGeometry x="645.03" y="285" width="60" height="60" as="geometry" />
          </mxCell>
        </UserObject>
        <UserObject label="" lucidchartObjectId="g59GRWiGmy-o" id="tqv5WJi3nZ0nivxOHpwp-38">
          <mxCell style="html=1;jettySize=18;whiteSpace=wrap;fontSize=13;strokeColor=#5E5E5E;strokeWidth=1.5;rounded=1;arcSize=12;edgeStyle=orthogonalEdgeStyle;startArrow=none;;endArrow=block;endFill=1;;exitX=0.365;exitY=0;exitPerimeter=0;entryX=0.795;entryY=0.919;entryPerimeter=0;" edge="1" parent="1" source="tqv5WJi3nZ0nivxOHpwp-27" target="tqv5WJi3nZ0nivxOHpwp-3">
            <mxGeometry width="100" height="100" relative="1" as="geometry">
              <Array as="points">
                <mxPoint x="382" y="299" />
                <mxPoint x="345" y="299" />
                <mxPoint x="345" y="245" />
                <mxPoint x="297" y="245" />
              </Array>
            </mxGeometry>
          </mxCell>
        </UserObject>
        <mxCell id="tqv5WJi3nZ0nivxOHpwp-39" value="ε" style="text;html=1;resizable=0;labelBackgroundColor=#ffffff;align=center;verticalAlign=middle;fontStyle=1;fontColor=#333333;;fontSize=13.3;" vertex="1" parent="tqv5WJi3nZ0nivxOHpwp-38">
          <mxGeometry x="-0.3844308247367094" relative="1" as="geometry" />
        </mxCell>
        <UserObject label="" lucidchartObjectId="S59Gdx7npKw7" id="tqv5WJi3nZ0nivxOHpwp-40">
          <mxCell style="html=1;jettySize=18;whiteSpace=wrap;fontSize=13;strokeColor=#5E5E5E;strokeWidth=1.5;rounded=1;arcSize=12;edgeStyle=orthogonalEdgeStyle;startArrow=none;;endArrow=block;endFill=1;;exitX=0.365;exitY=0;exitPerimeter=0;entryX=-0.019;entryY=0.5;entryPerimeter=0;" edge="1" parent="1" source="tqv5WJi3nZ0nivxOHpwp-31" target="tqv5WJi3nZ0nivxOHpwp-34">
            <mxGeometry width="100" height="100" relative="1" as="geometry">
              <Array as="points" />
            </mxGeometry>
          </mxCell>
        </UserObject>
        <mxCell id="tqv5WJi3nZ0nivxOHpwp-41" value="/" style="text;html=1;resizable=0;labelBackgroundColor=#ffffff;align=center;verticalAlign=middle;fontStyle=1;fontColor=#333333;;fontSize=13.3;" vertex="1" parent="tqv5WJi3nZ0nivxOHpwp-40">
          <mxGeometry x="0.24625110088966395" relative="1" as="geometry" />
        </mxCell>
        <UserObject label="" lucidchartObjectId="659GHz4Z6aDx" id="tqv5WJi3nZ0nivxOHpwp-42">
          <mxCell style="html=1;jettySize=18;whiteSpace=wrap;fontSize=13;strokeColor=#5E5E5E;strokeWidth=1.5;rounded=1;arcSize=12;edgeStyle=orthogonalEdgeStyle;startArrow=none;;endArrow=block;endFill=1;;exitX=1.019;exitY=0.5;exitPerimeter=0;entryX=-0.019;entryY=0.5;entryPerimeter=0;" edge="1" parent="1" source="tqv5WJi3nZ0nivxOHpwp-31" target="tqv5WJi3nZ0nivxOHpwp-36">
            <mxGeometry width="100" height="100" relative="1" as="geometry">
              <Array as="points" />
            </mxGeometry>
          </mxCell>
        </UserObject>
        <mxCell id="tqv5WJi3nZ0nivxOHpwp-43" value="&amp;gt;" style="text;html=1;resizable=0;labelBackgroundColor=#ffffff;align=center;verticalAlign=middle;fontStyle=1;fontColor=#333333;;fontSize=13.3;" vertex="1" parent="tqv5WJi3nZ0nivxOHpwp-42">
          <mxGeometry relative="1" as="geometry" />
        </mxCell>
        <UserObject label="A" lucidchartObjectId="d79Ga3jQYDl1" id="tqv5WJi3nZ0nivxOHpwp-44">
          <mxCell style="html=1;overflow=block;blockSpacing=1;whiteSpace=wrap;ellipse;whiteSpace=wrap;fontSize=16.7;fontColor=#333333;spacing=3.8;strokeColor=#5e5e5e;strokeOpacity=100;rounded=1;absoluteArcSize=1;arcSize=9;strokeWidth=2.3;" vertex="1" parent="1">
            <mxGeometry x="360.5" y="375" width="60" height="60" as="geometry" />
          </mxCell>
        </UserObject>
        <UserObject label="15" lucidchartObjectId="V79GZpLwrIrv" id="tqv5WJi3nZ0nivxOHpwp-45">
          <mxCell style="html=1;overflow=block;blockSpacing=1;whiteSpace=wrap;ellipse;whiteSpace=wrap;fontSize=16.7;fontColor=#333333;spacing=3.8;strokeColor=#5e5e5e;strokeOpacity=100;rounded=1;absoluteArcSize=1;arcSize=9;strokeWidth=2.3;" vertex="1" parent="1">
            <mxGeometry x="368.5" y="383" width="45" height="45" as="geometry" />
          </mxCell>
        </UserObject>
        <UserObject label="16" lucidchartObjectId="d89G9n0_KwFn" id="tqv5WJi3nZ0nivxOHpwp-46">
          <mxCell style="html=1;overflow=block;blockSpacing=1;whiteSpace=wrap;ellipse;whiteSpace=wrap;fontSize=16.7;fontColor=#333333;spacing=3.8;strokeColor=#5e5e5e;strokeOpacity=100;rounded=1;absoluteArcSize=1;arcSize=9;strokeWidth=2.3;" vertex="1" parent="1">
            <mxGeometry x="480.5" y="380" width="60" height="55" as="geometry" />
          </mxCell>
        </UserObject>
        <UserObject label="" lucidchartObjectId="l89GyeKBahgY" id="tqv5WJi3nZ0nivxOHpwp-47">
          <mxCell style="html=1;jettySize=18;whiteSpace=wrap;fontSize=13;strokeColor=#5E5E5E;strokeWidth=1.5;rounded=1;arcSize=12;edgeStyle=orthogonalEdgeStyle;startArrow=none;;endArrow=block;endFill=1;;exitX=1.025;exitY=0.5;exitPerimeter=0;entryX=-0.019;entryY=0.5;entryPerimeter=0;" edge="1" parent="1" source="tqv5WJi3nZ0nivxOHpwp-45" target="tqv5WJi3nZ0nivxOHpwp-46">
            <mxGeometry width="100" height="100" relative="1" as="geometry">
              <Array as="points">
                <mxPoint x="447.5" y="406" />
              </Array>
            </mxGeometry>
          </mxCell>
        </UserObject>
        <mxCell id="tqv5WJi3nZ0nivxOHpwp-48" value="ε" style="text;html=1;resizable=0;labelBackgroundColor=#ffffff;align=center;verticalAlign=middle;fontStyle=1;fontColor=#333333;;fontSize=13.3;" vertex="1" parent="tqv5WJi3nZ0nivxOHpwp-47">
          <mxGeometry x="-0.1609230013784465" relative="1" as="geometry" />
        </mxCell>
        <UserObject label="A" lucidchartObjectId="C89Gt3jZLUTO" id="tqv5WJi3nZ0nivxOHpwp-49">
          <mxCell style="html=1;overflow=block;blockSpacing=1;whiteSpace=wrap;ellipse;whiteSpace=wrap;fontSize=16.7;fontColor=#333333;spacing=3.8;strokeColor=#5e5e5e;strokeOpacity=100;rounded=1;absoluteArcSize=1;arcSize=9;strokeWidth=2.3;" vertex="1" parent="1">
            <mxGeometry x="600.5" y="375" width="60" height="60" as="geometry" />
          </mxCell>
        </UserObject>
        <UserObject label="17" lucidchartObjectId="F89GjUfgoJzo" id="tqv5WJi3nZ0nivxOHpwp-50">
          <mxCell style="html=1;overflow=block;blockSpacing=1;whiteSpace=wrap;ellipse;whiteSpace=wrap;fontSize=16.7;fontColor=#333333;spacing=3.8;strokeColor=#5e5e5e;strokeOpacity=100;rounded=1;absoluteArcSize=1;arcSize=9;strokeWidth=2.3;" vertex="1" parent="1">
            <mxGeometry x="608.5" y="383" width="45" height="45" as="geometry" />
          </mxCell>
        </UserObject>
        <UserObject label="" lucidchartObjectId="W89G8CydkxkC" id="tqv5WJi3nZ0nivxOHpwp-51">
          <mxCell style="html=1;jettySize=18;whiteSpace=wrap;fontSize=13;strokeColor=#5E5E5E;strokeWidth=1.5;rounded=1;arcSize=12;edgeStyle=orthogonalEdgeStyle;startArrow=none;;endArrow=block;endFill=1;;exitX=1.019;exitY=0.5;exitPerimeter=0;entryX=-0.019;entryY=0.5;entryPerimeter=0;" edge="1" parent="1" source="tqv5WJi3nZ0nivxOHpwp-46" target="tqv5WJi3nZ0nivxOHpwp-49">
            <mxGeometry width="100" height="100" relative="1" as="geometry">
              <Array as="points" />
            </mxGeometry>
          </mxCell>
        </UserObject>
        <mxCell id="tqv5WJi3nZ0nivxOHpwp-52" value="-" style="text;html=1;resizable=0;labelBackgroundColor=#ffffff;align=center;verticalAlign=middle;fontStyle=1;fontColor=#333333;;fontSize=13.3;" vertex="1" parent="tqv5WJi3nZ0nivxOHpwp-51">
          <mxGeometry x="-0.20779725742496014" relative="1" as="geometry" />
        </mxCell>
        <UserObject label="" lucidchartObjectId="c-9G2CK1nnDC" id="tqv5WJi3nZ0nivxOHpwp-53">
          <mxCell style="html=1;jettySize=18;whiteSpace=wrap;fontSize=13;strokeColor=#5E5E5E;strokeWidth=1.5;rounded=1;arcSize=12;edgeStyle=orthogonalEdgeStyle;startArrow=none;;endArrow=block;endFill=1;;exitX=0.389;exitY=1;exitPerimeter=0;entryX=0;entryY=0.5;entryDx=0;entryDy=0;" edge="1" parent="1" source="tqv5WJi3nZ0nivxOHpwp-3" target="tqv5WJi3nZ0nivxOHpwp-44">
            <mxGeometry width="100" height="100" relative="1" as="geometry">
              <Array as="points" />
              <mxPoint x="260" y="380" as="targetPoint" />
            </mxGeometry>
          </mxCell>
        </UserObject>
        <mxCell id="tqv5WJi3nZ0nivxOHpwp-54" value="/" style="text;html=1;resizable=0;labelBackgroundColor=#ffffff;align=center;verticalAlign=middle;fontStyle=1;fontColor=#333333;;fontSize=13.3;" vertex="1" parent="tqv5WJi3nZ0nivxOHpwp-53">
          <mxGeometry relative="1" as="geometry" />
        </mxCell>
        <UserObject label="19" lucidchartObjectId="f_9GSjAMqoEb" id="tqv5WJi3nZ0nivxOHpwp-55">
          <mxCell style="html=1;overflow=block;blockSpacing=1;whiteSpace=wrap;ellipse;whiteSpace=wrap;fontSize=16.7;fontColor=#333333;spacing=3.8;strokeColor=#5e5e5e;strokeOpacity=100;rounded=1;absoluteArcSize=1;arcSize=9;strokeWidth=2.3;" vertex="1" parent="1">
            <mxGeometry x="350" y="440" width="60" height="60" as="geometry" />
          </mxCell>
        </UserObject>
        <UserObject label="" lucidchartObjectId="n_9GZ5~WVcdi" id="tqv5WJi3nZ0nivxOHpwp-56">
          <mxCell style="html=1;jettySize=18;whiteSpace=wrap;fontSize=13;strokeColor=#5E5E5E;strokeWidth=1.5;rounded=1;arcSize=12;edgeStyle=orthogonalEdgeStyle;startArrow=none;;endArrow=block;endFill=1;;exitX=0.237;exitY=0.94;exitPerimeter=0;entryX=-0.019;entryY=0.5;entryPerimeter=0;" edge="1" parent="1" source="tqv5WJi3nZ0nivxOHpwp-3" target="tqv5WJi3nZ0nivxOHpwp-55">
            <mxGeometry width="100" height="100" relative="1" as="geometry">
              <Array as="points">
                <mxPoint x="246" y="480" />
                <mxPoint x="349" y="480" />
              </Array>
            </mxGeometry>
          </mxCell>
        </UserObject>
        <mxCell id="tqv5WJi3nZ0nivxOHpwp-57" value="&amp;" style="text;html=1;resizable=0;labelBackgroundColor=#ffffff;align=center;verticalAlign=middle;fontStyle=1;fontColor=#333333;;fontSize=13.3;" vertex="1" parent="tqv5WJi3nZ0nivxOHpwp-56">
          <mxGeometry x="0.2342412174348698" relative="1" as="geometry" />
        </mxCell>
        <UserObject label="20" lucidchartObjectId="K_9GRSdPkm0T" id="tqv5WJi3nZ0nivxOHpwp-58">
          <mxCell style="html=1;overflow=block;blockSpacing=1;whiteSpace=wrap;ellipse;whiteSpace=wrap;fontSize=16.7;fontColor=#333333;spacing=3.8;strokeColor=#5e5e5e;strokeOpacity=100;rounded=1;absoluteArcSize=1;arcSize=9;strokeWidth=2.3;" vertex="1" parent="1">
            <mxGeometry x="470" y="440" width="60" height="60" as="geometry" />
          </mxCell>
        </UserObject>
        <UserObject label="" lucidchartObjectId="N_9GECjtxnw-" id="tqv5WJi3nZ0nivxOHpwp-59">
          <mxCell style="html=1;jettySize=18;whiteSpace=wrap;fontSize=13;strokeColor=#5E5E5E;strokeWidth=1.5;rounded=1;arcSize=12;edgeStyle=orthogonalEdgeStyle;startArrow=none;;endArrow=block;endFill=1;;exitX=1.019;exitY=0.5;exitPerimeter=0;entryX=-0.019;entryY=0.5;entryPerimeter=0;" edge="1" parent="1" source="tqv5WJi3nZ0nivxOHpwp-55" target="tqv5WJi3nZ0nivxOHpwp-58">
            <mxGeometry width="100" height="100" relative="1" as="geometry">
              <Array as="points" />
            </mxGeometry>
          </mxCell>
        </UserObject>
        <mxCell id="tqv5WJi3nZ0nivxOHpwp-60" value="ε" style="text;html=1;resizable=0;labelBackgroundColor=#ffffff;align=center;verticalAlign=middle;fontStyle=1;fontColor=#333333;;fontSize=13.3;" vertex="1" parent="tqv5WJi3nZ0nivxOHpwp-59">
          <mxGeometry x="-0.20779725742496014" relative="1" as="geometry" />
        </mxCell>
        <UserObject label="21" lucidchartObjectId="W_9GOAZ.T30C" id="tqv5WJi3nZ0nivxOHpwp-61">
          <mxCell style="html=1;overflow=block;blockSpacing=1;whiteSpace=wrap;ellipse;whiteSpace=wrap;fontSize=16.7;fontColor=#333333;spacing=3.8;strokeColor=#5e5e5e;strokeOpacity=100;rounded=1;absoluteArcSize=1;arcSize=9;strokeWidth=2.3;" vertex="1" parent="1">
            <mxGeometry x="583" y="440" width="60" height="60" as="geometry" />
          </mxCell>
        </UserObject>
        <UserObject label="" lucidchartObjectId="6_9GLYLW-Fl5" id="tqv5WJi3nZ0nivxOHpwp-63">
          <mxCell style="html=1;jettySize=18;whiteSpace=wrap;fontSize=13;strokeColor=#5E5E5E;strokeWidth=1.5;rounded=1;arcSize=12;edgeStyle=orthogonalEdgeStyle;startArrow=none;;endArrow=block;endFill=1;;exitX=1.019;exitY=0.5;exitPerimeter=0;entryX=-0.025;entryY=0.5;entryPerimeter=0;" edge="1" parent="1" source="tqv5WJi3nZ0nivxOHpwp-58">
            <mxGeometry width="100" height="100" relative="1" as="geometry">
              <Array as="points" />
              <mxPoint x="588.875" y="470.5" as="targetPoint" />
            </mxGeometry>
          </mxCell>
        </UserObject>
        <mxCell id="tqv5WJi3nZ0nivxOHpwp-64" value="&amp;" style="text;html=1;resizable=0;labelBackgroundColor=#ffffff;align=center;verticalAlign=middle;fontStyle=1;fontColor=#333333;;fontSize=13.3;" vertex="1" parent="tqv5WJi3nZ0nivxOHpwp-63">
          <mxGeometry relative="1" as="geometry" />
        </mxCell>
        <UserObject label="23" lucidchartObjectId="F.9GmN54hSQd" id="tqv5WJi3nZ0nivxOHpwp-65">
          <mxCell style="html=1;overflow=block;blockSpacing=1;whiteSpace=wrap;ellipse;whiteSpace=wrap;fontSize=16.7;fontColor=#333333;spacing=3.8;strokeColor=#5e5e5e;strokeOpacity=100;rounded=1;absoluteArcSize=1;arcSize=9;strokeWidth=2.3;" vertex="1" parent="1">
            <mxGeometry x="352.03" y="517" width="60" height="60" as="geometry" />
          </mxCell>
        </UserObject>
        <UserObject label="" lucidchartObjectId="N.9Gey~d8bzc" id="tqv5WJi3nZ0nivxOHpwp-66">
          <mxCell style="html=1;jettySize=18;whiteSpace=wrap;fontSize=13;strokeColor=#5E5E5E;strokeWidth=1.5;rounded=1;arcSize=12;edgeStyle=orthogonalEdgeStyle;startArrow=none;;endArrow=block;endFill=1;;exitX=0.175;exitY=0.896;exitPerimeter=0;entryX=-0.019;entryY=0.5;entryPerimeter=0;" edge="1" parent="1" source="tqv5WJi3nZ0nivxOHpwp-3" target="tqv5WJi3nZ0nivxOHpwp-65">
            <mxGeometry width="100" height="100" relative="1" as="geometry">
              <Array as="points">
                <mxPoint x="241" y="547" />
              </Array>
            </mxGeometry>
          </mxCell>
        </UserObject>
        <mxCell id="tqv5WJi3nZ0nivxOHpwp-67" value="|" style="text;html=1;resizable=0;labelBackgroundColor=#ffffff;align=center;verticalAlign=middle;fontStyle=1;fontColor=#333333;;fontSize=13.3;" vertex="1" parent="tqv5WJi3nZ0nivxOHpwp-66">
          <mxGeometry x="0.7702912427644983" relative="1" as="geometry" />
        </mxCell>
        <UserObject label="24" lucidchartObjectId="4.9GDuCvD8dh" id="tqv5WJi3nZ0nivxOHpwp-68">
          <mxCell style="html=1;overflow=block;blockSpacing=1;whiteSpace=wrap;ellipse;whiteSpace=wrap;fontSize=16.7;fontColor=#333333;spacing=3.8;strokeColor=#5e5e5e;strokeOpacity=100;rounded=1;absoluteArcSize=1;arcSize=9;strokeWidth=2.3;" vertex="1" parent="1">
            <mxGeometry x="472.03" y="517" width="60" height="60" as="geometry" />
          </mxCell>
        </UserObject>
        <UserObject label="" lucidchartObjectId="7.9GUNWfTZsb" id="tqv5WJi3nZ0nivxOHpwp-69">
          <mxCell style="html=1;jettySize=18;whiteSpace=wrap;fontSize=13;strokeColor=#5E5E5E;strokeWidth=1.5;rounded=1;arcSize=12;edgeStyle=orthogonalEdgeStyle;startArrow=none;;endArrow=block;endFill=1;;exitX=1.019;exitY=0.5;exitPerimeter=0;entryX=-0.019;entryY=0.5;entryPerimeter=0;" edge="1" parent="1" source="tqv5WJi3nZ0nivxOHpwp-65" target="tqv5WJi3nZ0nivxOHpwp-68">
            <mxGeometry width="100" height="100" relative="1" as="geometry">
              <Array as="points" />
            </mxGeometry>
          </mxCell>
        </UserObject>
        <mxCell id="tqv5WJi3nZ0nivxOHpwp-70" value="ε" style="text;html=1;resizable=0;labelBackgroundColor=#ffffff;align=center;verticalAlign=middle;fontStyle=1;fontColor=#333333;;fontSize=13.3;" vertex="1" parent="tqv5WJi3nZ0nivxOHpwp-69">
          <mxGeometry x="-0.2770630098999459" relative="1" as="geometry" />
        </mxCell>
        <UserObject label="25" lucidchartObjectId="a~9GOd2Fgk35" id="tqv5WJi3nZ0nivxOHpwp-71">
          <mxCell style="html=1;overflow=block;blockSpacing=1;whiteSpace=wrap;ellipse;whiteSpace=wrap;fontSize=16.7;fontColor=#333333;spacing=3.8;strokeColor=#5e5e5e;strokeOpacity=100;rounded=1;absoluteArcSize=1;arcSize=9;strokeWidth=2.3;" vertex="1" parent="1">
            <mxGeometry x="592.03" y="517" width="60" height="60" as="geometry" />
          </mxCell>
        </UserObject>
        <UserObject label="" lucidchartObjectId="j~9GY9zfEy-y" id="tqv5WJi3nZ0nivxOHpwp-73">
          <mxCell style="html=1;jettySize=18;whiteSpace=wrap;fontSize=13;strokeColor=#5E5E5E;strokeWidth=1.5;rounded=1;arcSize=12;edgeStyle=orthogonalEdgeStyle;startArrow=none;;endArrow=block;endFill=1;;exitX=1.019;exitY=0.5;exitPerimeter=0;entryX=-0.019;entryY=0.5;entryPerimeter=0;" edge="1" parent="1" source="tqv5WJi3nZ0nivxOHpwp-68" target="tqv5WJi3nZ0nivxOHpwp-71">
            <mxGeometry width="100" height="100" relative="1" as="geometry">
              <Array as="points" />
            </mxGeometry>
          </mxCell>
        </UserObject>
        <mxCell id="tqv5WJi3nZ0nivxOHpwp-74" value="|" style="text;html=1;resizable=0;labelBackgroundColor=#ffffff;align=center;verticalAlign=middle;fontStyle=1;fontColor=#333333;;fontSize=13.3;" vertex="1" parent="tqv5WJi3nZ0nivxOHpwp-73">
          <mxGeometry x="-0.24243013366245458" relative="1" as="geometry" />
        </mxCell>
        <UserObject label="27" lucidchartObjectId="I~9GIM0lDfth" id="tqv5WJi3nZ0nivxOHpwp-75">
          <mxCell style="html=1;overflow=block;blockSpacing=1;whiteSpace=wrap;ellipse;whiteSpace=wrap;fontSize=16.7;fontColor=#333333;spacing=3.8;strokeColor=#5e5e5e;strokeOpacity=100;rounded=1;absoluteArcSize=1;arcSize=9;strokeWidth=2.3;" vertex="1" parent="1">
            <mxGeometry x="352.03" y="592" width="60" height="60" as="geometry" />
          </mxCell>
        </UserObject>
        <UserObject label="" lucidchartObjectId="S~9GipSRDCOl" id="tqv5WJi3nZ0nivxOHpwp-76">
          <mxCell style="html=1;jettySize=18;whiteSpace=wrap;fontSize=13;strokeColor=#5E5E5E;strokeWidth=1.5;rounded=1;arcSize=12;edgeStyle=orthogonalEdgeStyle;startArrow=none;;endArrow=block;endFill=1;;exitX=0.111;exitY=0.833;exitPerimeter=0;entryX=-0.019;entryY=0.5;entryPerimeter=0;" edge="1" parent="1" source="tqv5WJi3nZ0nivxOHpwp-3" target="tqv5WJi3nZ0nivxOHpwp-75">
            <mxGeometry width="100" height="100" relative="1" as="geometry">
              <Array as="points">
                <mxPoint x="235" y="610" />
                <mxPoint x="351" y="610" />
              </Array>
            </mxGeometry>
          </mxCell>
        </UserObject>
        <mxCell id="tqv5WJi3nZ0nivxOHpwp-77" value="~" style="text;html=1;resizable=0;labelBackgroundColor=#ffffff;align=center;verticalAlign=middle;fontStyle=1;fontColor=#333333;;fontSize=13.3;" vertex="1" parent="tqv5WJi3nZ0nivxOHpwp-76">
          <mxGeometry x="0.8394790924525313" relative="1" as="geometry" />
        </mxCell>
        <UserObject label="A" lucidchartObjectId="ra-GBftEquOc" id="tqv5WJi3nZ0nivxOHpwp-78">
          <mxCell style="html=1;overflow=block;blockSpacing=1;whiteSpace=wrap;ellipse;whiteSpace=wrap;fontSize=16.7;fontColor=#333333;spacing=3.8;strokeColor=#5e5e5e;strokeOpacity=100;rounded=1;absoluteArcSize=1;arcSize=9;strokeWidth=2.3;" vertex="1" parent="1">
            <mxGeometry x="487.03" y="592" width="60" height="60" as="geometry" />
          </mxCell>
        </UserObject>
        <UserObject label="28" lucidchartObjectId="ua-G4COGX05." id="tqv5WJi3nZ0nivxOHpwp-79">
          <mxCell style="html=1;overflow=block;blockSpacing=1;whiteSpace=wrap;ellipse;whiteSpace=wrap;fontSize=16.7;fontColor=#333333;spacing=3.8;strokeColor=#5e5e5e;strokeOpacity=100;rounded=1;absoluteArcSize=1;arcSize=9;strokeWidth=2.3;" vertex="1" parent="1">
            <mxGeometry x="495.03" y="600" width="45" height="45" as="geometry" />
          </mxCell>
        </UserObject>
        <UserObject label="" lucidchartObjectId="Ca-G.6CswfkU" id="tqv5WJi3nZ0nivxOHpwp-80">
          <mxCell style="html=1;jettySize=18;whiteSpace=wrap;fontSize=13;strokeColor=#5E5E5E;strokeWidth=1.5;rounded=1;arcSize=12;edgeStyle=orthogonalEdgeStyle;startArrow=none;;endArrow=block;endFill=1;;exitX=1.019;exitY=0.5;exitPerimeter=0;entryX=-0.025;entryY=0.5;entryPerimeter=0;" edge="1" parent="1" source="tqv5WJi3nZ0nivxOHpwp-75" target="tqv5WJi3nZ0nivxOHpwp-79">
            <mxGeometry width="100" height="100" relative="1" as="geometry">
              <Array as="points" />
            </mxGeometry>
          </mxCell>
        </UserObject>
        <mxCell id="tqv5WJi3nZ0nivxOHpwp-81" value="ε" style="text;html=1;resizable=0;labelBackgroundColor=#ffffff;align=center;verticalAlign=middle;fontStyle=1;fontColor=#333333;;fontSize=13.3;" vertex="1" parent="tqv5WJi3nZ0nivxOHpwp-80">
          <mxGeometry relative="1" as="geometry" />
        </mxCell>
        <mxCell id="tqv5WJi3nZ0nivxOHpwp-84" value="" style="ellipse;whiteSpace=wrap;html=1;aspect=fixed;" vertex="1" parent="1">
          <mxGeometry x="367.04" y="660" width="60" height="60" as="geometry" />
        </mxCell>
        <mxCell id="tqv5WJi3nZ0nivxOHpwp-85" value="29" style="ellipse;whiteSpace=wrap;html=1;aspect=fixed;" vertex="1" parent="1">
          <mxGeometry x="377.04" y="670" width="40" height="40" as="geometry" />
        </mxCell>
        <mxCell id="tqv5WJi3nZ0nivxOHpwp-86" value="" style="endArrow=classic;html=1;exitX=0.056;exitY=0.767;exitDx=0;exitDy=0;exitPerimeter=0;entryX=0.033;entryY=0.75;entryDx=0;entryDy=0;entryPerimeter=0;" edge="1" parent="1" source="tqv5WJi3nZ0nivxOHpwp-3" target="tqv5WJi3nZ0nivxOHpwp-84">
          <mxGeometry width="50" height="50" relative="1" as="geometry">
            <mxPoint x="220" y="150" as="sourcePoint" />
            <mxPoint x="220" y="770" as="targetPoint" />
            <Array as="points">
              <mxPoint x="230" y="680" />
              <mxPoint x="230" y="765" />
              <mxPoint x="260" y="750" />
              <mxPoint x="330" y="720" />
            </Array>
          </mxGeometry>
        </mxCell>
        <mxCell id="tqv5WJi3nZ0nivxOHpwp-87" value="=" style="edgeLabel;html=1;align=center;verticalAlign=middle;resizable=0;points=[];" vertex="1" connectable="0" parent="tqv5WJi3nZ0nivxOHpwp-86">
          <mxGeometry x="0.7561" relative="1" as="geometry">
            <mxPoint as="offset" />
          </mxGeometry>
        </mxCell>
        <mxCell id="tqv5WJi3nZ0nivxOHpwp-92" style="edgeStyle=orthogonalEdgeStyle;rounded=0;orthogonalLoop=1;jettySize=auto;html=1;" edge="1" parent="1" source="tqv5WJi3nZ0nivxOHpwp-88">
          <mxGeometry relative="1" as="geometry">
            <mxPoint x="497.04" y="690" as="targetPoint" />
          </mxGeometry>
        </mxCell>
        <mxCell id="tqv5WJi3nZ0nivxOHpwp-88" value="30" style="ellipse;whiteSpace=wrap;html=1;aspect=fixed;" vertex="1" parent="1">
          <mxGeometry x="502.04" y="660" width="60" height="60" as="geometry" />
        </mxCell>
        <mxCell id="tqv5WJi3nZ0nivxOHpwp-90" value="" style="endArrow=classic;html=1;exitX=1;exitY=0.5;exitDx=0;exitDy=0;" edge="1" parent="1" source="tqv5WJi3nZ0nivxOHpwp-84">
          <mxGeometry width="50" height="50" relative="1" as="geometry">
            <mxPoint x="437.04" y="710" as="sourcePoint" />
            <mxPoint x="497.04" y="690" as="targetPoint" />
          </mxGeometry>
        </mxCell>
        <mxCell id="tqv5WJi3nZ0nivxOHpwp-91" value="ε" style="text;html=1;align=center;verticalAlign=middle;resizable=0;points=[];autosize=1;strokeColor=none;" vertex="1" parent="1">
          <mxGeometry x="447.04" y="680" width="20" height="20" as="geometry" />
        </mxCell>
        <mxCell id="tqv5WJi3nZ0nivxOHpwp-96" style="edgeStyle=orthogonalEdgeStyle;rounded=0;orthogonalLoop=1;jettySize=auto;html=1;exitX=0;exitY=0.5;exitDx=0;exitDy=0;" edge="1" parent="1" source="tqv5WJi3nZ0nivxOHpwp-93">
          <mxGeometry relative="1" as="geometry">
            <mxPoint x="619.04" y="690" as="targetPoint" />
          </mxGeometry>
        </mxCell>
        <mxCell id="tqv5WJi3nZ0nivxOHpwp-93" value="31" style="ellipse;whiteSpace=wrap;html=1;aspect=fixed;" vertex="1" parent="1">
          <mxGeometry x="619.04" y="660" width="60" height="60" as="geometry" />
        </mxCell>
        <mxCell id="tqv5WJi3nZ0nivxOHpwp-95" value="" style="endArrow=classic;html=1;exitX=0.917;exitY=0.5;exitDx=0;exitDy=0;exitPerimeter=0;" edge="1" parent="1" source="tqv5WJi3nZ0nivxOHpwp-88">
          <mxGeometry width="50" height="50" relative="1" as="geometry">
            <mxPoint x="567.04" y="690" as="sourcePoint" />
            <mxPoint x="627.04" y="690" as="targetPoint" />
            <Array as="points">
              <mxPoint x="587.04" y="690" />
            </Array>
          </mxGeometry>
        </mxCell>
        <mxCell id="tqv5WJi3nZ0nivxOHpwp-97" value="=" style="edgeLabel;html=1;align=center;verticalAlign=middle;resizable=0;points=[];" vertex="1" connectable="0" parent="tqv5WJi3nZ0nivxOHpwp-95">
          <mxGeometry x="0.1426" y="-4" relative="1" as="geometry">
            <mxPoint as="offset" />
          </mxGeometry>
        </mxCell>
        <mxCell id="tqv5WJi3nZ0nivxOHpwp-98" value="" style="ellipse;whiteSpace=wrap;html=1;aspect=fixed;" vertex="1" parent="1">
          <mxGeometry x="730" y="720" width="60" height="60" as="geometry" />
        </mxCell>
        <mxCell id="tqv5WJi3nZ0nivxOHpwp-99" value="A" style="ellipse;whiteSpace=wrap;html=1;aspect=fixed;" vertex="1" parent="1">
          <mxGeometry x="750" y="670" width="40" height="40" as="geometry" />
        </mxCell>
        <mxCell id="tqv5WJi3nZ0nivxOHpwp-100" value="" style="endArrow=classic;html=1;exitX=1;exitY=0.5;exitDx=0;exitDy=0;entryX=0;entryY=0.5;entryDx=0;entryDy=0;" edge="1" parent="1" source="tqv5WJi3nZ0nivxOHpwp-93">
          <mxGeometry width="50" height="50" relative="1" as="geometry">
            <mxPoint x="687.04" y="710" as="sourcePoint" />
            <mxPoint x="737.04" y="690" as="targetPoint" />
          </mxGeometry>
        </mxCell>
        <mxCell id="tqv5WJi3nZ0nivxOHpwp-101" value="ε" style="edgeLabel;html=1;align=center;verticalAlign=middle;resizable=0;points=[];" vertex="1" connectable="0" parent="tqv5WJi3nZ0nivxOHpwp-100">
          <mxGeometry x="0.3793" relative="1" as="geometry">
            <mxPoint as="offset" />
          </mxGeometry>
        </mxCell>
        <mxCell id="tqv5WJi3nZ0nivxOHpwp-102" value="A" style="ellipse;whiteSpace=wrap;html=1;aspect=fixed;" vertex="1" parent="1">
          <mxGeometry x="367.04" y="740" width="60" height="60" as="geometry" />
        </mxCell>
        <mxCell id="tqv5WJi3nZ0nivxOHpwp-103" value="" style="endArrow=classic;html=1;exitX=0.022;exitY=0.7;exitDx=0;exitDy=0;exitPerimeter=0;entryX=0;entryY=0.5;entryDx=0;entryDy=0;" edge="1" parent="1" source="tqv5WJi3nZ0nivxOHpwp-3" target="tqv5WJi3nZ0nivxOHpwp-102">
          <mxGeometry width="50" height="50" relative="1" as="geometry">
            <mxPoint x="170" y="220" as="sourcePoint" />
            <mxPoint x="220" y="170" as="targetPoint" />
            <Array as="points">
              <mxPoint x="220" y="780" />
              <mxPoint x="220" y="830" />
            </Array>
          </mxGeometry>
        </mxCell>
        <mxCell id="tqv5WJi3nZ0nivxOHpwp-104" value="&amp;lt;" style="edgeLabel;html=1;align=center;verticalAlign=middle;resizable=0;points=[];" vertex="1" connectable="0" parent="tqv5WJi3nZ0nivxOHpwp-103">
          <mxGeometry x="0.8727" y="1" relative="1" as="geometry">
            <mxPoint as="offset" />
          </mxGeometry>
        </mxCell>
        <mxCell id="tqv5WJi3nZ0nivxOHpwp-105" value="33" style="ellipse;whiteSpace=wrap;html=1;aspect=fixed;" vertex="1" parent="1">
          <mxGeometry x="377.04" y="750" width="40" height="40" as="geometry" />
        </mxCell>
        <mxCell id="tqv5WJi3nZ0nivxOHpwp-106" value="34" style="ellipse;whiteSpace=wrap;html=1;aspect=fixed;" vertex="1" parent="1">
          <mxGeometry x="502.04" y="740" width="60" height="60" as="geometry" />
        </mxCell>
        <mxCell id="tqv5WJi3nZ0nivxOHpwp-107" value="" style="endArrow=classic;html=1;exitX=1;exitY=0.5;exitDx=0;exitDy=0;entryX=0;entryY=0.5;entryDx=0;entryDy=0;" edge="1" parent="1" source="tqv5WJi3nZ0nivxOHpwp-102" target="tqv5WJi3nZ0nivxOHpwp-106">
          <mxGeometry width="50" height="50" relative="1" as="geometry">
            <mxPoint x="437.04" y="800" as="sourcePoint" />
            <mxPoint x="497.04" y="770" as="targetPoint" />
          </mxGeometry>
        </mxCell>
        <mxCell id="tqv5WJi3nZ0nivxOHpwp-108" value="ε" style="edgeLabel;html=1;align=center;verticalAlign=middle;resizable=0;points=[];" vertex="1" connectable="0" parent="tqv5WJi3nZ0nivxOHpwp-107">
          <mxGeometry x="-0.36" y="1" relative="1" as="geometry">
            <mxPoint as="offset" />
          </mxGeometry>
        </mxCell>
        <mxCell id="tqv5WJi3nZ0nivxOHpwp-109" value="35" style="ellipse;whiteSpace=wrap;html=1;aspect=fixed;" vertex="1" parent="1">
          <mxGeometry x="630.04" y="740" width="60" height="60" as="geometry" />
        </mxCell>
        <mxCell id="tqv5WJi3nZ0nivxOHpwp-114" value="" style="endArrow=classic;html=1;exitX=1;exitY=0.5;exitDx=0;exitDy=0;entryX=0;entryY=0.5;entryDx=0;entryDy=0;" edge="1" parent="1" source="tqv5WJi3nZ0nivxOHpwp-106" target="tqv5WJi3nZ0nivxOHpwp-109">
          <mxGeometry width="50" height="50" relative="1" as="geometry">
            <mxPoint x="567.04" y="800" as="sourcePoint" />
            <mxPoint x="617.04" y="750" as="targetPoint" />
          </mxGeometry>
        </mxCell>
        <mxCell id="tqv5WJi3nZ0nivxOHpwp-115" value="=" style="edgeLabel;html=1;align=center;verticalAlign=middle;resizable=0;points=[];" vertex="1" connectable="0" parent="tqv5WJi3nZ0nivxOHpwp-114">
          <mxGeometry x="0.4118" y="-4" relative="1" as="geometry">
            <mxPoint as="offset" />
          </mxGeometry>
        </mxCell>
        <mxCell id="tqv5WJi3nZ0nivxOHpwp-116" value="" style="ellipse;whiteSpace=wrap;html=1;aspect=fixed;" vertex="1" parent="1">
          <mxGeometry x="732" y="800" width="60" height="60" as="geometry" />
        </mxCell>
        <mxCell id="tqv5WJi3nZ0nivxOHpwp-117" value="36" style="ellipse;whiteSpace=wrap;html=1;aspect=fixed;" vertex="1" parent="1">
          <mxGeometry x="742" y="730" width="40" height="40" as="geometry" />
        </mxCell>
        <mxCell id="tqv5WJi3nZ0nivxOHpwp-118" value="" style="endArrow=classic;html=1;exitX=1;exitY=0.5;exitDx=0;exitDy=0;" edge="1" parent="1" source="tqv5WJi3nZ0nivxOHpwp-109">
          <mxGeometry width="50" height="50" relative="1" as="geometry">
            <mxPoint x="697.04" y="800" as="sourcePoint" />
            <mxPoint x="737.04" y="770" as="targetPoint" />
          </mxGeometry>
        </mxCell>
        <mxCell id="tqv5WJi3nZ0nivxOHpwp-119" value="ε" style="edgeLabel;html=1;align=center;verticalAlign=middle;resizable=0;points=[];" vertex="1" connectable="0" parent="tqv5WJi3nZ0nivxOHpwp-118">
          <mxGeometry x="0.4043" relative="1" as="geometry">
            <mxPoint as="offset" />
          </mxGeometry>
        </mxCell>
        <mxCell id="tqv5WJi3nZ0nivxOHpwp-120" value="" style="ellipse;whiteSpace=wrap;html=1;aspect=fixed;" vertex="1" parent="1">
          <mxGeometry x="367.54" y="810" width="60" height="60" as="geometry" />
        </mxCell>
        <mxCell id="tqv5WJi3nZ0nivxOHpwp-121" value="37" style="ellipse;whiteSpace=wrap;html=1;aspect=fixed;" vertex="1" parent="1">
          <mxGeometry x="377.04" y="820" width="40" height="40" as="geometry" />
        </mxCell>
        <mxCell id="tqv5WJi3nZ0nivxOHpwp-122" value="" style="endArrow=classic;html=1;exitX=-0.011;exitY=0.611;exitDx=0;exitDy=0;exitPerimeter=0;" edge="1" parent="1" source="tqv5WJi3nZ0nivxOHpwp-3">
          <mxGeometry width="50" height="50" relative="1" as="geometry">
            <mxPoint x="170" y="230" as="sourcePoint" />
            <mxPoint x="360" y="840" as="targetPoint" />
            <Array as="points">
              <mxPoint x="210" y="850" />
              <mxPoint x="210" y="902" />
              <mxPoint x="290" y="840" />
            </Array>
          </mxGeometry>
        </mxCell>
        <mxCell id="tqv5WJi3nZ0nivxOHpwp-123" value="&amp;gt;" style="edgeLabel;html=1;align=center;verticalAlign=middle;resizable=0;points=[];" vertex="1" connectable="0" parent="tqv5WJi3nZ0nivxOHpwp-122">
          <mxGeometry x="0.8567" y="2" relative="1" as="geometry">
            <mxPoint y="2" as="offset" />
          </mxGeometry>
        </mxCell>
        <mxCell id="tqv5WJi3nZ0nivxOHpwp-124" value="38" style="ellipse;whiteSpace=wrap;html=1;aspect=fixed;" vertex="1" parent="1">
          <mxGeometry x="502.54" y="810" width="60" height="60" as="geometry" />
        </mxCell>
        <mxCell id="tqv5WJi3nZ0nivxOHpwp-125" value="" style="endArrow=classic;html=1;exitX=1;exitY=0.5;exitDx=0;exitDy=0;entryX=0;entryY=0.5;entryDx=0;entryDy=0;" edge="1" parent="1" source="tqv5WJi3nZ0nivxOHpwp-120" target="tqv5WJi3nZ0nivxOHpwp-124">
          <mxGeometry width="50" height="50" relative="1" as="geometry">
            <mxPoint x="437.04" y="870" as="sourcePoint" />
            <mxPoint x="487.04" y="820" as="targetPoint" />
          </mxGeometry>
        </mxCell>
        <mxCell id="tqv5WJi3nZ0nivxOHpwp-126" value="ε" style="edgeLabel;html=1;align=center;verticalAlign=middle;resizable=0;points=[];" vertex="1" connectable="0" parent="tqv5WJi3nZ0nivxOHpwp-125">
          <mxGeometry x="0.4" y="-2" relative="1" as="geometry">
            <mxPoint as="offset" />
          </mxGeometry>
        </mxCell>
        <mxCell id="tqv5WJi3nZ0nivxOHpwp-127" value="39" style="ellipse;whiteSpace=wrap;html=1;aspect=fixed;" vertex="1" parent="1">
          <mxGeometry x="630.04" y="810" width="60" height="60" as="geometry" />
        </mxCell>
        <mxCell id="tqv5WJi3nZ0nivxOHpwp-128" value="" style="endArrow=classic;html=1;entryX=0.117;entryY=0.5;entryDx=0;entryDy=0;entryPerimeter=0;" edge="1" parent="1" target="tqv5WJi3nZ0nivxOHpwp-127">
          <mxGeometry width="50" height="50" relative="1" as="geometry">
            <mxPoint x="567.04" y="840" as="sourcePoint" />
            <mxPoint x="627.04" y="820" as="targetPoint" />
          </mxGeometry>
        </mxCell>
        <mxCell id="tqv5WJi3nZ0nivxOHpwp-129" value="=" style="edgeLabel;html=1;align=center;verticalAlign=middle;resizable=0;points=[];" vertex="1" connectable="0" parent="tqv5WJi3nZ0nivxOHpwp-128">
          <mxGeometry x="0.2853" y="-3" relative="1" as="geometry">
            <mxPoint as="offset" />
          </mxGeometry>
        </mxCell>
        <mxCell id="tqv5WJi3nZ0nivxOHpwp-130" value="" style="ellipse;whiteSpace=wrap;html=1;aspect=fixed;" vertex="1" parent="1">
          <mxGeometry x="732" y="870" width="60" height="60" as="geometry" />
        </mxCell>
        <mxCell id="tqv5WJi3nZ0nivxOHpwp-131" value="40" style="ellipse;whiteSpace=wrap;html=1;aspect=fixed;" vertex="1" parent="1">
          <mxGeometry x="740" y="810" width="40" height="40" as="geometry" />
        </mxCell>
        <mxCell id="tqv5WJi3nZ0nivxOHpwp-132" value="" style="endArrow=classic;html=1;exitX=1;exitY=0.5;exitDx=0;exitDy=0;entryX=0;entryY=0.5;entryDx=0;entryDy=0;" edge="1" parent="1" source="tqv5WJi3nZ0nivxOHpwp-127">
          <mxGeometry width="50" height="50" relative="1" as="geometry">
            <mxPoint x="687.04" y="870" as="sourcePoint" />
            <mxPoint x="739.04" y="840" as="targetPoint" />
          </mxGeometry>
        </mxCell>
        <mxCell id="tqv5WJi3nZ0nivxOHpwp-133" value="ε" style="edgeLabel;html=1;align=center;verticalAlign=middle;resizable=0;points=[];" vertex="1" connectable="0" parent="tqv5WJi3nZ0nivxOHpwp-132">
          <mxGeometry x="0.3878" y="-3" relative="1" as="geometry">
            <mxPoint as="offset" />
          </mxGeometry>
        </mxCell>
        <mxCell id="tqv5WJi3nZ0nivxOHpwp-134" value="41" style="ellipse;whiteSpace=wrap;html=1;aspect=fixed;" vertex="1" parent="1">
          <mxGeometry x="367.54" y="880" width="60" height="60" as="geometry" />
        </mxCell>
        <mxCell id="tqv5WJi3nZ0nivxOHpwp-136" value="" style="endArrow=classic;html=1;exitX=0.022;exitY=0.6;exitDx=0;exitDy=0;exitPerimeter=0;entryX=0;entryY=1;entryDx=0;entryDy=0;" edge="1" parent="1" source="tqv5WJi3nZ0nivxOHpwp-3" target="tqv5WJi3nZ0nivxOHpwp-134">
          <mxGeometry width="50" height="50" relative="1" as="geometry">
            <mxPoint x="160" y="230" as="sourcePoint" />
            <mxPoint x="360" y="990" as="targetPoint" />
            <Array as="points">
              <mxPoint x="200" y="930" />
              <mxPoint x="200" y="957" />
            </Array>
          </mxGeometry>
        </mxCell>
        <mxCell id="tqv5WJi3nZ0nivxOHpwp-137" value="!" style="edgeLabel;html=1;align=center;verticalAlign=middle;resizable=0;points=[];" vertex="1" connectable="0" parent="tqv5WJi3nZ0nivxOHpwp-136">
          <mxGeometry x="0.9016" y="-3" relative="1" as="geometry">
            <mxPoint as="offset" />
          </mxGeometry>
        </mxCell>
        <mxCell id="tqv5WJi3nZ0nivxOHpwp-138" value="42" style="ellipse;whiteSpace=wrap;html=1;aspect=fixed;" vertex="1" parent="1">
          <mxGeometry x="502.54" y="890" width="60" height="60" as="geometry" />
        </mxCell>
        <mxCell id="tqv5WJi3nZ0nivxOHpwp-139" value="" style="endArrow=classic;html=1;exitX=1;exitY=0.5;exitDx=0;exitDy=0;entryX=0.042;entryY=0.367;entryDx=0;entryDy=0;entryPerimeter=0;" edge="1" parent="1" source="tqv5WJi3nZ0nivxOHpwp-134" target="tqv5WJi3nZ0nivxOHpwp-138">
          <mxGeometry width="50" height="50" relative="1" as="geometry">
            <mxPoint x="437.04" y="940" as="sourcePoint" />
            <mxPoint x="487.04" y="890" as="targetPoint" />
          </mxGeometry>
        </mxCell>
        <mxCell id="tqv5WJi3nZ0nivxOHpwp-140" value="ε" style="edgeLabel;html=1;align=center;verticalAlign=middle;resizable=0;points=[];" vertex="1" connectable="0" parent="tqv5WJi3nZ0nivxOHpwp-139">
          <mxGeometry x="0.3807" y="-1" relative="1" as="geometry">
            <mxPoint as="offset" />
          </mxGeometry>
        </mxCell>
        <mxCell id="tqv5WJi3nZ0nivxOHpwp-141" value="43" style="ellipse;whiteSpace=wrap;html=1;aspect=fixed;" vertex="1" parent="1">
          <mxGeometry x="630.04" y="890" width="60" height="60" as="geometry" />
        </mxCell>
        <mxCell id="tqv5WJi3nZ0nivxOHpwp-142" value="" style="endArrow=classic;html=1;exitX=0.975;exitY=0.4;exitDx=0;exitDy=0;exitPerimeter=0;entryX=0;entryY=0.5;entryDx=0;entryDy=0;" edge="1" parent="1" source="tqv5WJi3nZ0nivxOHpwp-138" target="tqv5WJi3nZ0nivxOHpwp-141">
          <mxGeometry width="50" height="50" relative="1" as="geometry">
            <mxPoint x="567.04" y="950" as="sourcePoint" />
            <mxPoint x="617.04" y="900" as="targetPoint" />
          </mxGeometry>
        </mxCell>
        <mxCell id="tqv5WJi3nZ0nivxOHpwp-143" value="=" style="edgeLabel;html=1;align=center;verticalAlign=middle;resizable=0;points=[];" vertex="1" connectable="0" parent="tqv5WJi3nZ0nivxOHpwp-142">
          <mxGeometry x="0.2758" relative="1" as="geometry">
            <mxPoint as="offset" />
          </mxGeometry>
        </mxCell>
        <mxCell id="tqv5WJi3nZ0nivxOHpwp-144" value="A" style="ellipse;whiteSpace=wrap;html=1;aspect=fixed;" vertex="1" parent="1">
          <mxGeometry x="740" y="660" width="60" height="60" as="geometry" />
        </mxCell>
        <mxCell id="tqv5WJi3nZ0nivxOHpwp-145" value="44" style="ellipse;whiteSpace=wrap;html=1;aspect=fixed;" vertex="1" parent="1">
          <mxGeometry x="740" y="880" width="40" height="40" as="geometry" />
        </mxCell>
        <mxCell id="tqv5WJi3nZ0nivxOHpwp-146" value="" style="endArrow=classic;html=1;exitX=1;exitY=0.5;exitDx=0;exitDy=0;entryX=0.05;entryY=0.383;entryDx=0;entryDy=0;entryPerimeter=0;" edge="1" parent="1" source="tqv5WJi3nZ0nivxOHpwp-141">
          <mxGeometry width="50" height="50" relative="1" as="geometry">
            <mxPoint x="687.04" y="940" as="sourcePoint" />
            <mxPoint x="742.04" y="912.98" as="targetPoint" />
          </mxGeometry>
        </mxCell>
        <mxCell id="tqv5WJi3nZ0nivxOHpwp-148" value="ε" style="edgeLabel;html=1;align=center;verticalAlign=middle;resizable=0;points=[];" vertex="1" connectable="0" parent="tqv5WJi3nZ0nivxOHpwp-146">
          <mxGeometry x="0.5364" relative="1" as="geometry">
            <mxPoint as="offset" />
          </mxGeometry>
        </mxCell>
        <mxCell id="tqv5WJi3nZ0nivxOHpwp-149" value="32" style="ellipse;whiteSpace=wrap;html=1;aspect=fixed;" vertex="1" parent="1">
          <mxGeometry x="750" y="670" width="40" height="40" as="geometry" />
        </mxCell>
        <mxCell id="tqv5WJi3nZ0nivxOHpwp-150" value="45" style="ellipse;whiteSpace=wrap;html=1;aspect=fixed;" vertex="1" parent="1">
          <mxGeometry x="373" y="950" width="47" height="47" as="geometry" />
        </mxCell>
        <mxCell id="tqv5WJi3nZ0nivxOHpwp-151" value="" style="endArrow=classic;html=1;exitX=0.022;exitY=0.6;exitDx=0;exitDy=0;exitPerimeter=0;entryX=0.064;entryY=0.702;entryDx=0;entryDy=0;entryPerimeter=0;" edge="1" parent="1" source="tqv5WJi3nZ0nivxOHpwp-3" target="tqv5WJi3nZ0nivxOHpwp-150">
          <mxGeometry width="50" height="50" relative="1" as="geometry">
            <mxPoint x="220" y="170" as="sourcePoint" />
            <mxPoint x="180" y="235" as="targetPoint" />
            <Array as="points">
              <mxPoint x="190" y="990" />
            </Array>
          </mxGeometry>
        </mxCell>
        <mxCell id="tqv5WJi3nZ0nivxOHpwp-152" value="{" style="edgeLabel;html=1;align=center;verticalAlign=middle;resizable=0;points=[];" vertex="1" connectable="0" parent="tqv5WJi3nZ0nivxOHpwp-151">
          <mxGeometry x="0.9204" y="-1" relative="1" as="geometry">
            <mxPoint as="offset" />
          </mxGeometry>
        </mxCell>
        <mxCell id="tqv5WJi3nZ0nivxOHpwp-153" value="" style="ellipse;whiteSpace=wrap;html=1;aspect=fixed;" vertex="1" parent="1">
          <mxGeometry x="507.03" y="957" width="43" height="43" as="geometry" />
        </mxCell>
        <mxCell id="tqv5WJi3nZ0nivxOHpwp-154" value="46" style="ellipse;whiteSpace=wrap;html=1;aspect=fixed;" vertex="1" parent="1">
          <mxGeometry x="513.53" y="963.5" width="30" height="30" as="geometry" />
        </mxCell>
        <mxCell id="tqv5WJi3nZ0nivxOHpwp-155" value="" style="endArrow=classic;html=1;exitX=1;exitY=0.5;exitDx=0;exitDy=0;entryX=0;entryY=0.5;entryDx=0;entryDy=0;" edge="1" parent="1" source="tqv5WJi3nZ0nivxOHpwp-150" target="tqv5WJi3nZ0nivxOHpwp-153">
          <mxGeometry width="50" height="50" relative="1" as="geometry">
            <mxPoint x="430" y="970" as="sourcePoint" />
            <mxPoint x="490" y="950" as="targetPoint" />
          </mxGeometry>
        </mxCell>
        <mxCell id="tqv5WJi3nZ0nivxOHpwp-156" value="ε" style="edgeLabel;html=1;align=center;verticalAlign=middle;resizable=0;points=[];" vertex="1" connectable="0" parent="tqv5WJi3nZ0nivxOHpwp-155">
          <mxGeometry x="0.426" y="-1" relative="1" as="geometry">
            <mxPoint as="offset" />
          </mxGeometry>
        </mxCell>
        <mxCell id="tqv5WJi3nZ0nivxOHpwp-157" value="A" style="ellipse;whiteSpace=wrap;html=1;aspect=fixed;" vertex="1" parent="1">
          <mxGeometry x="376.5" y="1010" width="40" height="40" as="geometry" />
        </mxCell>
        <mxCell id="tqv5WJi3nZ0nivxOHpwp-159" value="" style="ellipse;whiteSpace=wrap;html=1;aspect=fixed;" vertex="1" parent="1">
          <mxGeometry x="507.03" y="1010" width="40" height="40" as="geometry" />
        </mxCell>
        <mxCell id="tqv5WJi3nZ0nivxOHpwp-160" value="A" style="ellipse;whiteSpace=wrap;html=1;aspect=fixed;" vertex="1" parent="1">
          <mxGeometry x="510.5" y="1015" width="30" height="30" as="geometry" />
        </mxCell>
        <mxCell id="tqv5WJi3nZ0nivxOHpwp-161" value="47" style="ellipse;whiteSpace=wrap;html=1;aspect=fixed;" vertex="1" parent="1">
          <mxGeometry x="376.5" y="1010" width="40" height="40" as="geometry" />
        </mxCell>
        <mxCell id="tqv5WJi3nZ0nivxOHpwp-162" value="" style="ellipse;whiteSpace=wrap;html=1;aspect=fixed;" vertex="1" parent="1">
          <mxGeometry x="507.03" y="1010" width="40" height="40" as="geometry" />
        </mxCell>
        <mxCell id="tqv5WJi3nZ0nivxOHpwp-163" value="48" style="ellipse;whiteSpace=wrap;html=1;aspect=fixed;" vertex="1" parent="1">
          <mxGeometry x="510.5" y="1015" width="30" height="30" as="geometry" />
        </mxCell>
        <mxCell id="tqv5WJi3nZ0nivxOHpwp-164" value="49" style="ellipse;whiteSpace=wrap;html=1;aspect=fixed;" vertex="1" parent="1">
          <mxGeometry x="377.04" y="1060" width="40" height="40" as="geometry" />
        </mxCell>
        <mxCell id="tqv5WJi3nZ0nivxOHpwp-165" value="" style="ellipse;whiteSpace=wrap;html=1;aspect=fixed;" vertex="1" parent="1">
          <mxGeometry x="507.57" y="1060" width="40" height="40" as="geometry" />
        </mxCell>
        <mxCell id="tqv5WJi3nZ0nivxOHpwp-166" value="50" style="ellipse;whiteSpace=wrap;html=1;aspect=fixed;" vertex="1" parent="1">
          <mxGeometry x="511.04" y="1065" width="30" height="30" as="geometry" />
        </mxCell>
        <mxCell id="tqv5WJi3nZ0nivxOHpwp-167" value="51" style="ellipse;whiteSpace=wrap;html=1;aspect=fixed;" vertex="1" parent="1">
          <mxGeometry x="390" y="1110" width="40" height="40" as="geometry" />
        </mxCell>
        <mxCell id="tqv5WJi3nZ0nivxOHpwp-168" value="" style="ellipse;whiteSpace=wrap;html=1;aspect=fixed;" vertex="1" parent="1">
          <mxGeometry x="520.53" y="1110" width="40" height="40" as="geometry" />
        </mxCell>
        <mxCell id="tqv5WJi3nZ0nivxOHpwp-169" value="52" style="ellipse;whiteSpace=wrap;html=1;aspect=fixed;" vertex="1" parent="1">
          <mxGeometry x="524" y="1115" width="30" height="30" as="geometry" />
        </mxCell>
        <mxCell id="tqv5WJi3nZ0nivxOHpwp-170" value="" style="endArrow=classic;html=1;exitX=0;exitY=0.5;exitDx=0;exitDy=0;entryX=0;entryY=0.5;entryDx=0;entryDy=0;" edge="1" parent="1" source="tqv5WJi3nZ0nivxOHpwp-3" target="tqv5WJi3nZ0nivxOHpwp-161">
          <mxGeometry width="50" height="50" relative="1" as="geometry">
            <mxPoint x="140" y="250" as="sourcePoint" />
            <mxPoint x="190" y="200" as="targetPoint" />
            <Array as="points">
              <mxPoint x="180" y="1000" />
            </Array>
          </mxGeometry>
        </mxCell>
        <mxCell id="tqv5WJi3nZ0nivxOHpwp-171" value="}" style="edgeLabel;html=1;align=center;verticalAlign=middle;resizable=0;points=[];" vertex="1" connectable="0" parent="tqv5WJi3nZ0nivxOHpwp-170">
          <mxGeometry x="0.9098" relative="1" as="geometry">
            <mxPoint as="offset" />
          </mxGeometry>
        </mxCell>
        <mxCell id="tqv5WJi3nZ0nivxOHpwp-173" value="" style="endArrow=classic;html=1;exitX=1;exitY=0.5;exitDx=0;exitDy=0;entryX=0;entryY=0.5;entryDx=0;entryDy=0;" edge="1" parent="1" source="tqv5WJi3nZ0nivxOHpwp-161" target="tqv5WJi3nZ0nivxOHpwp-162">
          <mxGeometry width="50" height="50" relative="1" as="geometry">
            <mxPoint x="440" y="1050" as="sourcePoint" />
            <mxPoint x="490" y="1000" as="targetPoint" />
          </mxGeometry>
        </mxCell>
        <mxCell id="tqv5WJi3nZ0nivxOHpwp-174" value="ε" style="edgeLabel;html=1;align=center;verticalAlign=middle;resizable=0;points=[];" vertex="1" connectable="0" parent="tqv5WJi3nZ0nivxOHpwp-173">
          <mxGeometry x="0.2261" y="-2" relative="1" as="geometry">
            <mxPoint x="1" as="offset" />
          </mxGeometry>
        </mxCell>
        <mxCell id="tqv5WJi3nZ0nivxOHpwp-175" value="" style="endArrow=classic;html=1;exitX=0;exitY=0.589;exitDx=0;exitDy=0;exitPerimeter=0;entryX=0;entryY=0;entryDx=0;entryDy=0;" edge="1" parent="1" source="tqv5WJi3nZ0nivxOHpwp-3" target="tqv5WJi3nZ0nivxOHpwp-164">
          <mxGeometry width="50" height="50" relative="1" as="geometry">
            <mxPoint x="150" y="240" as="sourcePoint" />
            <mxPoint x="170" y="1041" as="targetPoint" />
            <Array as="points">
              <mxPoint x="170" y="1020" />
            </Array>
          </mxGeometry>
        </mxCell>
        <mxCell id="tqv5WJi3nZ0nivxOHpwp-176" value="[" style="edgeLabel;html=1;align=center;verticalAlign=middle;resizable=0;points=[];" vertex="1" connectable="0" parent="tqv5WJi3nZ0nivxOHpwp-175">
          <mxGeometry x="0.8829" y="-1" relative="1" as="geometry">
            <mxPoint as="offset" />
          </mxGeometry>
        </mxCell>
        <mxCell id="tqv5WJi3nZ0nivxOHpwp-177" value="" style="endArrow=classic;html=1;exitX=1;exitY=0.5;exitDx=0;exitDy=0;entryX=0;entryY=0.5;entryDx=0;entryDy=0;" edge="1" parent="1" source="tqv5WJi3nZ0nivxOHpwp-164" target="tqv5WJi3nZ0nivxOHpwp-165">
          <mxGeometry width="50" height="50" relative="1" as="geometry">
            <mxPoint x="440" y="1100" as="sourcePoint" />
            <mxPoint x="490" y="1050" as="targetPoint" />
          </mxGeometry>
        </mxCell>
        <mxCell id="tqv5WJi3nZ0nivxOHpwp-178" value="ε" style="edgeLabel;html=1;align=center;verticalAlign=middle;resizable=0;points=[];" vertex="1" connectable="0" parent="tqv5WJi3nZ0nivxOHpwp-177">
          <mxGeometry x="0.5235" y="-5" relative="1" as="geometry">
            <mxPoint as="offset" />
          </mxGeometry>
        </mxCell>
        <mxCell id="tqv5WJi3nZ0nivxOHpwp-179" value="" style="endArrow=classic;html=1;exitX=0.011;exitY=0.578;exitDx=0;exitDy=0;exitPerimeter=0;entryX=0;entryY=0;entryDx=0;entryDy=0;" edge="1" parent="1" source="tqv5WJi3nZ0nivxOHpwp-3" target="tqv5WJi3nZ0nivxOHpwp-167">
          <mxGeometry width="50" height="50" relative="1" as="geometry">
            <mxPoint x="150" y="250" as="sourcePoint" />
            <mxPoint x="160" y="1051" as="targetPoint" />
            <Array as="points">
              <mxPoint x="160" y="1040" />
            </Array>
          </mxGeometry>
        </mxCell>
        <mxCell id="tqv5WJi3nZ0nivxOHpwp-180" value="]" style="edgeLabel;html=1;align=center;verticalAlign=middle;resizable=0;points=[];" vertex="1" connectable="0" parent="tqv5WJi3nZ0nivxOHpwp-179">
          <mxGeometry x="0.8742" relative="1" as="geometry">
            <mxPoint as="offset" />
          </mxGeometry>
        </mxCell>
        <mxCell id="tqv5WJi3nZ0nivxOHpwp-181" value="" style="endArrow=classic;html=1;exitX=1;exitY=0.5;exitDx=0;exitDy=0;entryX=0;entryY=0.5;entryDx=0;entryDy=0;" edge="1" parent="1" source="tqv5WJi3nZ0nivxOHpwp-167" target="tqv5WJi3nZ0nivxOHpwp-168">
          <mxGeometry width="50" height="50" relative="1" as="geometry">
            <mxPoint x="450" y="1160" as="sourcePoint" />
            <mxPoint x="500" y="1110" as="targetPoint" />
          </mxGeometry>
        </mxCell>
        <mxCell id="tqv5WJi3nZ0nivxOHpwp-182" value="ε" style="edgeLabel;html=1;align=center;verticalAlign=middle;resizable=0;points=[];" vertex="1" connectable="0" parent="tqv5WJi3nZ0nivxOHpwp-181">
          <mxGeometry x="0.2372" y="4" relative="1" as="geometry">
            <mxPoint as="offset" />
          </mxGeometry>
        </mxCell>
        <mxCell id="tqv5WJi3nZ0nivxOHpwp-183" value="53" style="ellipse;whiteSpace=wrap;html=1;aspect=fixed;" vertex="1" parent="1">
          <mxGeometry x="394" y="1169" width="40" height="40" as="geometry" />
        </mxCell>
        <mxCell id="tqv5WJi3nZ0nivxOHpwp-184" value="" style="ellipse;whiteSpace=wrap;html=1;aspect=fixed;" vertex="1" parent="1">
          <mxGeometry x="514" y="1169" width="40" height="40" as="geometry" />
        </mxCell>
        <mxCell id="tqv5WJi3nZ0nivxOHpwp-186" value="54" style="ellipse;whiteSpace=wrap;html=1;aspect=fixed;" vertex="1" parent="1">
          <mxGeometry x="519" y="1174" width="30" height="30" as="geometry" />
        </mxCell>
        <mxCell id="tqv5WJi3nZ0nivxOHpwp-187" value="55" style="ellipse;whiteSpace=wrap;html=1;aspect=fixed;" vertex="1" parent="1">
          <mxGeometry x="394" y="1220" width="40" height="40" as="geometry" />
        </mxCell>
        <mxCell id="tqv5WJi3nZ0nivxOHpwp-188" value="" style="ellipse;whiteSpace=wrap;html=1;aspect=fixed;" vertex="1" parent="1">
          <mxGeometry x="514" y="1220" width="40" height="40" as="geometry" />
        </mxCell>
        <mxCell id="tqv5WJi3nZ0nivxOHpwp-189" value="56" style="ellipse;whiteSpace=wrap;html=1;aspect=fixed;" vertex="1" parent="1">
          <mxGeometry x="519" y="1225" width="30" height="30" as="geometry" />
        </mxCell>
        <mxCell id="tqv5WJi3nZ0nivxOHpwp-190" value="57" style="ellipse;whiteSpace=wrap;html=1;aspect=fixed;" vertex="1" parent="1">
          <mxGeometry x="394" y="1270" width="40" height="40" as="geometry" />
        </mxCell>
        <mxCell id="tqv5WJi3nZ0nivxOHpwp-191" value="" style="ellipse;whiteSpace=wrap;html=1;aspect=fixed;" vertex="1" parent="1">
          <mxGeometry x="514" y="1270" width="40" height="40" as="geometry" />
        </mxCell>
        <mxCell id="tqv5WJi3nZ0nivxOHpwp-192" value="58" style="ellipse;whiteSpace=wrap;html=1;aspect=fixed;" vertex="1" parent="1">
          <mxGeometry x="519" y="1275" width="30" height="30" as="geometry" />
        </mxCell>
        <mxCell id="tqv5WJi3nZ0nivxOHpwp-193" value="59" style="ellipse;whiteSpace=wrap;html=1;aspect=fixed;" vertex="1" parent="1">
          <mxGeometry x="394" y="1320" width="40" height="40" as="geometry" />
        </mxCell>
        <mxCell id="tqv5WJi3nZ0nivxOHpwp-194" value="" style="ellipse;whiteSpace=wrap;html=1;aspect=fixed;" vertex="1" parent="1">
          <mxGeometry x="514" y="1320" width="40" height="40" as="geometry" />
        </mxCell>
        <mxCell id="tqv5WJi3nZ0nivxOHpwp-195" value="60" style="ellipse;whiteSpace=wrap;html=1;aspect=fixed;" vertex="1" parent="1">
          <mxGeometry x="519" y="1325" width="30" height="30" as="geometry" />
        </mxCell>
        <mxCell id="tqv5WJi3nZ0nivxOHpwp-196" value="" style="endArrow=classic;html=1;exitX=0;exitY=0.6;exitDx=0;exitDy=0;exitPerimeter=0;entryX=0.3;entryY=0;entryDx=0;entryDy=0;entryPerimeter=0;" edge="1" parent="1" source="tqv5WJi3nZ0nivxOHpwp-3" target="tqv5WJi3nZ0nivxOHpwp-183">
          <mxGeometry width="50" height="50" relative="1" as="geometry">
            <mxPoint x="150" y="240" as="sourcePoint" />
            <mxPoint x="200" y="190" as="targetPoint" />
            <Array as="points">
              <mxPoint x="150" y="1070" />
            </Array>
          </mxGeometry>
        </mxCell>
        <mxCell id="tqv5WJi3nZ0nivxOHpwp-197" value="&quot;" style="edgeLabel;html=1;align=center;verticalAlign=middle;resizable=0;points=[];" vertex="1" connectable="0" parent="tqv5WJi3nZ0nivxOHpwp-196">
          <mxGeometry x="0.8827" relative="1" as="geometry">
            <mxPoint as="offset" />
          </mxGeometry>
        </mxCell>
        <mxCell id="tqv5WJi3nZ0nivxOHpwp-198" value="" style="endArrow=classic;html=1;exitX=1;exitY=0;exitDx=0;exitDy=0;entryX=0;entryY=0.5;entryDx=0;entryDy=0;" edge="1" parent="1" source="tqv5WJi3nZ0nivxOHpwp-183" target="tqv5WJi3nZ0nivxOHpwp-184">
          <mxGeometry width="50" height="50" relative="1" as="geometry">
            <mxPoint x="450" y="1210" as="sourcePoint" />
            <mxPoint x="500" y="1160" as="targetPoint" />
          </mxGeometry>
        </mxCell>
        <mxCell id="tqv5WJi3nZ0nivxOHpwp-199" value="ε" style="edgeLabel;html=1;align=center;verticalAlign=middle;resizable=0;points=[];" vertex="1" connectable="0" parent="tqv5WJi3nZ0nivxOHpwp-198">
          <mxGeometry x="0.4786" y="2" relative="1" as="geometry">
            <mxPoint as="offset" />
          </mxGeometry>
        </mxCell>
        <mxCell id="tqv5WJi3nZ0nivxOHpwp-200" value="" style="endArrow=classic;html=1;exitX=0;exitY=0.5;exitDx=0;exitDy=0;entryX=0;entryY=0.5;entryDx=0;entryDy=0;" edge="1" parent="1" source="tqv5WJi3nZ0nivxOHpwp-3" target="tqv5WJi3nZ0nivxOHpwp-187">
          <mxGeometry width="50" height="50" relative="1" as="geometry">
            <mxPoint x="150" y="250" as="sourcePoint" />
            <mxPoint x="200" y="200" as="targetPoint" />
            <Array as="points">
              <mxPoint x="140" y="1090" />
            </Array>
          </mxGeometry>
        </mxCell>
        <mxCell id="tqv5WJi3nZ0nivxOHpwp-201" value="&#39;" style="edgeLabel;html=1;align=center;verticalAlign=middle;resizable=0;points=[];" vertex="1" connectable="0" parent="tqv5WJi3nZ0nivxOHpwp-200">
          <mxGeometry x="0.8893" y="1" relative="1" as="geometry">
            <mxPoint as="offset" />
          </mxGeometry>
        </mxCell>
        <mxCell id="tqv5WJi3nZ0nivxOHpwp-202" value="" style="endArrow=classic;html=1;exitX=1;exitY=0.5;exitDx=0;exitDy=0;entryX=0;entryY=0.5;entryDx=0;entryDy=0;" edge="1" parent="1" source="tqv5WJi3nZ0nivxOHpwp-187" target="tqv5WJi3nZ0nivxOHpwp-188">
          <mxGeometry width="50" height="50" relative="1" as="geometry">
            <mxPoint x="450" y="1260" as="sourcePoint" />
            <mxPoint x="500" y="1210" as="targetPoint" />
          </mxGeometry>
        </mxCell>
        <mxCell id="tqv5WJi3nZ0nivxOHpwp-203" value="ε" style="edgeLabel;html=1;align=center;verticalAlign=middle;resizable=0;points=[];" vertex="1" connectable="0" parent="tqv5WJi3nZ0nivxOHpwp-202">
          <mxGeometry x="0.325" y="-3" relative="1" as="geometry">
            <mxPoint as="offset" />
          </mxGeometry>
        </mxCell>
        <mxCell id="tqv5WJi3nZ0nivxOHpwp-204" value="" style="endArrow=classic;html=1;exitX=-0.011;exitY=0.6;exitDx=0;exitDy=0;exitPerimeter=0;entryX=0;entryY=0;entryDx=0;entryDy=0;" edge="1" parent="1" source="tqv5WJi3nZ0nivxOHpwp-3" target="tqv5WJi3nZ0nivxOHpwp-190">
          <mxGeometry width="50" height="50" relative="1" as="geometry">
            <mxPoint x="150" y="240" as="sourcePoint" />
            <mxPoint x="390" y="1290" as="targetPoint" />
            <Array as="points">
              <mxPoint x="130" y="1110" />
            </Array>
          </mxGeometry>
        </mxCell>
        <mxCell id="tqv5WJi3nZ0nivxOHpwp-206" value="#" style="edgeLabel;html=1;align=center;verticalAlign=middle;resizable=0;points=[];" vertex="1" connectable="0" parent="tqv5WJi3nZ0nivxOHpwp-204">
          <mxGeometry x="0.954" y="-3" relative="1" as="geometry">
            <mxPoint as="offset" />
          </mxGeometry>
        </mxCell>
        <mxCell id="tqv5WJi3nZ0nivxOHpwp-207" value="" style="endArrow=classic;html=1;entryX=0;entryY=0.5;entryDx=0;entryDy=0;exitX=1;exitY=0.5;exitDx=0;exitDy=0;" edge="1" parent="1" source="tqv5WJi3nZ0nivxOHpwp-190" target="tqv5WJi3nZ0nivxOHpwp-192">
          <mxGeometry width="50" height="50" relative="1" as="geometry">
            <mxPoint x="440" y="1290" as="sourcePoint" />
            <mxPoint x="500" y="1270" as="targetPoint" />
          </mxGeometry>
        </mxCell>
        <mxCell id="tqv5WJi3nZ0nivxOHpwp-209" value="ε" style="edgeLabel;html=1;align=center;verticalAlign=middle;resizable=0;points=[];" vertex="1" connectable="0" parent="tqv5WJi3nZ0nivxOHpwp-207">
          <mxGeometry x="0.5059" y="-3" relative="1" as="geometry">
            <mxPoint as="offset" />
          </mxGeometry>
        </mxCell>
        <mxCell id="tqv5WJi3nZ0nivxOHpwp-210" value="" style="endArrow=classic;html=1;exitX=-0.011;exitY=0.611;exitDx=0;exitDy=0;exitPerimeter=0;entryX=0;entryY=0;entryDx=0;entryDy=0;" edge="1" parent="1" source="tqv5WJi3nZ0nivxOHpwp-3" target="tqv5WJi3nZ0nivxOHpwp-193">
          <mxGeometry width="50" height="50" relative="1" as="geometry">
            <mxPoint x="140" y="250" as="sourcePoint" />
            <mxPoint x="190" y="200" as="targetPoint" />
            <Array as="points">
              <mxPoint x="110" y="1200" />
            </Array>
          </mxGeometry>
        </mxCell>
        <mxCell id="tqv5WJi3nZ0nivxOHpwp-211" value="^" style="edgeLabel;html=1;align=center;verticalAlign=middle;resizable=0;points=[];" vertex="1" connectable="0" parent="tqv5WJi3nZ0nivxOHpwp-210">
          <mxGeometry x="0.9066" relative="1" as="geometry">
            <mxPoint as="offset" />
          </mxGeometry>
        </mxCell>
        <mxCell id="tqv5WJi3nZ0nivxOHpwp-212" value="" style="endArrow=classic;html=1;exitX=1;exitY=0.5;exitDx=0;exitDy=0;entryX=0.033;entryY=0.5;entryDx=0;entryDy=0;entryPerimeter=0;" edge="1" parent="1" source="tqv5WJi3nZ0nivxOHpwp-193" target="tqv5WJi3nZ0nivxOHpwp-195">
          <mxGeometry width="50" height="50" relative="1" as="geometry">
            <mxPoint x="450" y="1360" as="sourcePoint" />
            <mxPoint x="500" y="1310" as="targetPoint" />
          </mxGeometry>
        </mxCell>
        <mxCell id="tqv5WJi3nZ0nivxOHpwp-213" value="ε" style="edgeLabel;html=1;align=center;verticalAlign=middle;resizable=0;points=[];" vertex="1" connectable="0" parent="tqv5WJi3nZ0nivxOHpwp-212">
          <mxGeometry x="0.3257" relative="1" as="geometry">
            <mxPoint as="offset" />
          </mxGeometry>
        </mxCell>
        <mxCell id="tqv5WJi3nZ0nivxOHpwp-214" value="" style="ellipse;whiteSpace=wrap;html=1;aspect=fixed;" vertex="1" parent="1">
          <mxGeometry x="712" y="158" width="52" height="52" as="geometry" />
        </mxCell>
        <mxCell id="tqv5WJi3nZ0nivxOHpwp-215" value="13" style="ellipse;whiteSpace=wrap;html=1;aspect=fixed;" vertex="1" parent="1">
          <mxGeometry x="718" y="163" width="40" height="40" as="geometry" />
        </mxCell>
        <mxCell id="tqv5WJi3nZ0nivxOHpwp-216" value="" style="endArrow=classic;html=1;exitX=0.5;exitY=0;exitDx=0;exitDy=0;entryX=0.038;entryY=0.673;entryDx=0;entryDy=0;entryPerimeter=0;" edge="1" parent="1" source="tqv5WJi3nZ0nivxOHpwp-34" target="tqv5WJi3nZ0nivxOHpwp-214">
          <mxGeometry width="50" height="50" relative="1" as="geometry">
            <mxPoint x="650" y="220" as="sourcePoint" />
            <mxPoint x="700" y="170" as="targetPoint" />
          </mxGeometry>
        </mxCell>
        <mxCell id="tqv5WJi3nZ0nivxOHpwp-217" value="ε" style="edgeLabel;html=1;align=center;verticalAlign=middle;resizable=0;points=[];" vertex="1" connectable="0" parent="tqv5WJi3nZ0nivxOHpwp-216">
          <mxGeometry x="0.5056" y="-2" relative="1" as="geometry">
            <mxPoint as="offset" />
          </mxGeometry>
        </mxCell>
        <mxCell id="tqv5WJi3nZ0nivxOHpwp-220" value="" style="ellipse;whiteSpace=wrap;html=1;aspect=fixed;" vertex="1" parent="1">
          <mxGeometry x="763.997222277183" y="240" width="52" height="52" as="geometry" />
        </mxCell>
        <mxCell id="tqv5WJi3nZ0nivxOHpwp-221" value="14" style="ellipse;whiteSpace=wrap;html=1;aspect=fixed;" vertex="1" parent="1">
          <mxGeometry x="769.997222277183" y="246" width="40" height="40" as="geometry" />
        </mxCell>
        <mxCell id="tqv5WJi3nZ0nivxOHpwp-223" value="" style="ellipse;whiteSpace=wrap;html=1;aspect=fixed;" vertex="1" parent="1">
          <mxGeometry x="737.997222277183" y="368" width="52" height="52" as="geometry" />
        </mxCell>
        <mxCell id="tqv5WJi3nZ0nivxOHpwp-224" value="18" style="ellipse;whiteSpace=wrap;html=1;aspect=fixed;" vertex="1" parent="1">
          <mxGeometry x="743.997222277183" y="373" width="40" height="40" as="geometry" />
        </mxCell>
        <mxCell id="tqv5WJi3nZ0nivxOHpwp-226" value="" style="ellipse;whiteSpace=wrap;html=1;aspect=fixed;" vertex="1" parent="1">
          <mxGeometry x="732.027222277183" y="460" width="52" height="52" as="geometry" />
        </mxCell>
        <mxCell id="tqv5WJi3nZ0nivxOHpwp-227" value="22" style="ellipse;whiteSpace=wrap;html=1;aspect=fixed;" vertex="1" parent="1">
          <mxGeometry x="738.027222277183" y="465" width="40" height="40" as="geometry" />
        </mxCell>
        <mxCell id="tqv5WJi3nZ0nivxOHpwp-229" value="" style="ellipse;whiteSpace=wrap;html=1;aspect=fixed;" vertex="1" parent="1">
          <mxGeometry x="732.027222277183" y="570" width="52" height="52" as="geometry" />
        </mxCell>
        <mxCell id="tqv5WJi3nZ0nivxOHpwp-230" value="26" style="ellipse;whiteSpace=wrap;html=1;aspect=fixed;" vertex="1" parent="1">
          <mxGeometry x="738.027222277183" y="575" width="40" height="40" as="geometry" />
        </mxCell>
        <mxCell id="tqv5WJi3nZ0nivxOHpwp-234" value="" style="endArrow=classic;html=1;exitX=1;exitY=0;exitDx=0;exitDy=0;entryX=-0.05;entryY=0.25;entryDx=0;entryDy=0;entryPerimeter=0;" edge="1" parent="1" source="tqv5WJi3nZ0nivxOHpwp-36" target="tqv5WJi3nZ0nivxOHpwp-221">
          <mxGeometry width="50" height="50" relative="1" as="geometry">
            <mxPoint x="720" y="320" as="sourcePoint" />
            <mxPoint x="770" y="270" as="targetPoint" />
          </mxGeometry>
        </mxCell>
        <mxCell id="tqv5WJi3nZ0nivxOHpwp-235" value="ε" style="edgeLabel;html=1;align=center;verticalAlign=middle;resizable=0;points=[];" vertex="1" connectable="0" parent="tqv5WJi3nZ0nivxOHpwp-234">
          <mxGeometry x="0.3384" y="1" relative="1" as="geometry">
            <mxPoint as="offset" />
          </mxGeometry>
        </mxCell>
        <mxCell id="tqv5WJi3nZ0nivxOHpwp-236" value="" style="endArrow=classic;html=1;exitX=1;exitY=0.5;exitDx=0;exitDy=0;entryX=-0.019;entryY=0.365;entryDx=0;entryDy=0;entryPerimeter=0;" edge="1" parent="1" source="tqv5WJi3nZ0nivxOHpwp-49" target="tqv5WJi3nZ0nivxOHpwp-223">
          <mxGeometry width="50" height="50" relative="1" as="geometry">
            <mxPoint x="680" y="420" as="sourcePoint" />
            <mxPoint x="730" y="370" as="targetPoint" />
          </mxGeometry>
        </mxCell>
        <mxCell id="tqv5WJi3nZ0nivxOHpwp-237" value="ε" style="edgeLabel;html=1;align=center;verticalAlign=middle;resizable=0;points=[];" vertex="1" connectable="0" parent="tqv5WJi3nZ0nivxOHpwp-236">
          <mxGeometry x="0.4752" relative="1" as="geometry">
            <mxPoint as="offset" />
          </mxGeometry>
        </mxCell>
        <mxCell id="tqv5WJi3nZ0nivxOHpwp-238" value="" style="endArrow=classic;html=1;exitX=0.967;exitY=0.383;exitDx=0;exitDy=0;exitPerimeter=0;" edge="1" parent="1" source="tqv5WJi3nZ0nivxOHpwp-61">
          <mxGeometry width="50" height="50" relative="1" as="geometry">
            <mxPoint x="670" y="500" as="sourcePoint" />
            <mxPoint x="740" y="470" as="targetPoint" />
          </mxGeometry>
        </mxCell>
        <mxCell id="tqv5WJi3nZ0nivxOHpwp-239" value="ε" style="edgeLabel;html=1;align=center;verticalAlign=middle;resizable=0;points=[];" vertex="1" connectable="0" parent="tqv5WJi3nZ0nivxOHpwp-238">
          <mxGeometry x="0.2303" y="1" relative="1" as="geometry">
            <mxPoint as="offset" />
          </mxGeometry>
        </mxCell>
        <mxCell id="tqv5WJi3nZ0nivxOHpwp-240" value="" style="endArrow=classic;html=1;exitX=1;exitY=0.5;exitDx=0;exitDy=0;entryX=0;entryY=0;entryDx=0;entryDy=0;" edge="1" parent="1" source="tqv5WJi3nZ0nivxOHpwp-71" target="tqv5WJi3nZ0nivxOHpwp-229">
          <mxGeometry width="50" height="50" relative="1" as="geometry">
            <mxPoint x="670" y="590" as="sourcePoint" />
            <mxPoint x="720" y="540" as="targetPoint" />
          </mxGeometry>
        </mxCell>
        <mxCell id="tqv5WJi3nZ0nivxOHpwp-241" value="ε" style="edgeLabel;html=1;align=center;verticalAlign=middle;resizable=0;points=[];" vertex="1" connectable="0" parent="tqv5WJi3nZ0nivxOHpwp-240">
          <mxGeometry x="0.2869" y="2" relative="1" as="geometry">
            <mxPoint as="offset" />
          </mxGeometry>
        </mxCell>
        <mxCell id="tqv5WJi3nZ0nivxOHpwp-242" value="61" style="ellipse;whiteSpace=wrap;html=1;aspect=fixed;" vertex="1" parent="1">
          <mxGeometry x="394" y="1380" width="40" height="40" as="geometry" />
        </mxCell>
        <mxCell id="tqv5WJi3nZ0nivxOHpwp-243" value="" style="ellipse;whiteSpace=wrap;html=1;aspect=fixed;" vertex="1" parent="1">
          <mxGeometry x="514" y="1380" width="40" height="40" as="geometry" />
        </mxCell>
        <mxCell id="tqv5WJi3nZ0nivxOHpwp-244" value="62" style="ellipse;whiteSpace=wrap;html=1;aspect=fixed;" vertex="1" parent="1">
          <mxGeometry x="519" y="1385" width="30" height="30" as="geometry" />
        </mxCell>
        <mxCell id="tqv5WJi3nZ0nivxOHpwp-245" value="" style="endArrow=classic;html=1;exitX=1;exitY=0.5;exitDx=0;exitDy=0;entryX=0.033;entryY=0.5;entryDx=0;entryDy=0;entryPerimeter=0;" edge="1" source="tqv5WJi3nZ0nivxOHpwp-242" target="tqv5WJi3nZ0nivxOHpwp-244" parent="1">
          <mxGeometry width="50" height="50" relative="1" as="geometry">
            <mxPoint x="450" y="1420" as="sourcePoint" />
            <mxPoint x="500" y="1370" as="targetPoint" />
          </mxGeometry>
        </mxCell>
        <mxCell id="tqv5WJi3nZ0nivxOHpwp-246" value="ε" style="edgeLabel;html=1;align=center;verticalAlign=middle;resizable=0;points=[];" vertex="1" connectable="0" parent="tqv5WJi3nZ0nivxOHpwp-245">
          <mxGeometry x="0.3257" relative="1" as="geometry">
            <mxPoint as="offset" />
          </mxGeometry>
        </mxCell>
        <mxCell id="tqv5WJi3nZ0nivxOHpwp-248" value="" style="endArrow=classic;html=1;exitX=0.022;exitY=0.578;exitDx=0;exitDy=0;exitPerimeter=0;entryX=0;entryY=0;entryDx=0;entryDy=0;" edge="1" parent="1" source="tqv5WJi3nZ0nivxOHpwp-3" target="tqv5WJi3nZ0nivxOHpwp-242">
          <mxGeometry width="50" height="50" relative="1" as="geometry">
            <mxPoint x="140" y="270" as="sourcePoint" />
            <mxPoint x="190" y="220" as="targetPoint" />
            <Array as="points">
              <mxPoint x="90" y="1270" />
              <mxPoint x="180" y="1290" />
            </Array>
          </mxGeometry>
        </mxCell>
        <mxCell id="tqv5WJi3nZ0nivxOHpwp-249" value="*" style="edgeLabel;html=1;align=center;verticalAlign=middle;resizable=0;points=[];" vertex="1" connectable="0" parent="tqv5WJi3nZ0nivxOHpwp-248">
          <mxGeometry x="0.8539" y="1" relative="1" as="geometry">
            <mxPoint as="offset" />
          </mxGeometry>
        </mxCell>
      </root>
    </mxGraphModel>
  </diagram>
</mxfile>
